<?xml version="1.0" encoding="utf-8"?>
<!-- Generator: Adobe Illustrator 16.0.0, SVG Export Plug-In . SVG Version: 6.00 Build 0)  -->
<!DOCTYPE svg PUBLIC "-//W3C//DTD SVG 1.1//EN" "http://www.w3.org/Graphics/SVG/1.1/DTD/svg11.dtd">
<svg version="1.1" id="Layer_1" xmlns="http://www.w3.org/2000/svg" xmlns:xlink="http://www.w3.org/1999/xlink" x="0px" y="0px"
	 width="172px" height="30px" viewBox="0 0 172 30" enable-background="new 0 0 172 30" xml:space="preserve">
<g>
	<path fill="#212121" d="M23.369,29.994h-1.905L4.366,5.568H4.308l0.135,17.946c0,0.721-0.003,1.426-0.01,2.115
		c-0.007,0.689-0.029,2.048-0.067,2.716l2.847-0.208l-0.02,1.834L0,29.994v-1.119c0.603,0,1.346-0.63,1.549-0.89
		c0.283-0.364,0.48-0.873,0.654-1.2c0.172-0.328,0.281-0.683,0.327-1.067c0.045-0.382,0.067-0.734,0.067-1.063L2.635,1.663L0,1.847
		V0.008h4.692l16.771,23.854h0.039l0.038-19.171c0-1.171,0.039-2.181,0.115-3.028L18.83,1.847V0.008h7.25v1.369
		c-0.743,0.028-1.298,0.175-1.664,0.441c-0.365,0.265-0.622,0.623-0.769,1.073c-0.147,0.45-0.218,0.982-0.212,1.595
		c0.007,0.613,0.011,1.296,0.011,2.046L23.369,29.994z"/>
	<path fill="#212121" d="M77.297,16.282c-0.013,1.822-0.201,3.562-0.567,5.215c-0.366,1.652-0.961,3.105-1.789,4.365
		c-0.827,1.258-1.914,2.262-3.26,3.011c-1.346,0.747-3.007,1.121-4.981,1.121c-2.103,0-3.866-0.293-5.289-0.875
		c-1.423-0.587-2.568-1.486-3.434-2.704c-0.865-1.22-1.484-2.767-1.856-4.645c-0.372-1.877-0.558-4.107-0.558-6.692V6.589
		c0-0.367,0.003-0.775,0.011-1.225c0.006-0.448,0.019-0.897,0.038-1.345c0.019-0.45,0.036-0.874,0.048-1.276
		c0.013-0.402,0.032-0.738,0.058-1.011L52.89,1.855V0.081h8.848v1.366c-0.667,0-1.183,0.121-1.548,0.358
		c-0.365,0.238-0.635,0.528-0.809,0.867c-0.172,0.341-0.275,0.701-0.308,1.083c-0.031,0.38-0.047,0.713-0.047,0.999v10.53
		c0,1.034,0.039,2.059,0.115,3.072c0.077,1.014,0.221,1.977,0.433,2.888c0.212,0.913,0.506,1.755,0.885,2.531
		c0.378,0.774,0.868,1.449,1.471,2.02c0.602,0.572,1.333,1.019,2.193,1.337c0.858,0.321,1.877,0.479,3.057,0.479
		c1.424,0,2.645-0.275,3.664-0.815c1.02-0.545,1.859-1.31,2.52-2.298c0.661-0.982,1.148-2.159,1.462-3.52
		c0.313-1.358,0.483-2.858,0.509-4.49l0.154-11.733c0-1.169,0.039-2.176,0.115-3.021l-2.828,0.184V0.081h7.328v1.366
		c-0.743,0.028-1.305,0.175-1.683,0.439c-0.377,0.266-0.644,0.623-0.798,1.071c-0.153,0.45-0.233,0.98-0.24,1.592
		c-0.006,0.612-0.01,1.293-0.01,2.04L77.297,16.282z"/>
	<path fill="#212121" d="M104.107,9.106c-0.025-1.264-0.115-2.364-0.271-3.302c-0.152-0.939-0.422-1.716-0.808-2.334
		c-0.383-0.619-0.903-1.082-1.559-1.387c-0.651-0.306-1.485-0.458-2.498-0.458l-3.327,0.021l-0.057,23.259
		c0,1.528-0.041,2.657-0.117,3.379l3.271-0.167v1.854h-9.251v-1.398c0.729-0.026,1.281-0.179,1.653-0.456
		c0.371-0.277,0.636-0.649,0.788-1.117c0.154-0.463,0.23-1.012,0.23-1.638s0-1.299,0-2.024l0.06-21.65l-4.079,0.021
		c-0.833,0-1.535,0.15-2.105,0.449c-0.57,0.299-1.036,0.753-1.395,1.365c-0.359,0.611-0.619,1.379-0.78,2.304
		c-0.16,0.924-0.239,2.018-0.239,3.282h-1.462l0.231-9.025h22.964l0.232,9.025H104.107z"/>
	<path fill="#212121" d="M111.396,4.793c0-0.587,0.01-1.142,0.031-1.666c0.02-0.523,0.053-1.001,0.104-1.435l-2.846,0.189V0h8.866
		v1.4c-0.743,0.03-1.301,0.18-1.674,0.451c-0.37,0.273-0.634,0.639-0.788,1.1c-0.153,0.459-0.233,1.003-0.241,1.632
		c-0.006,0.628-0.008,1.326-0.008,2.093v18.209c0,0.783-0.01,1.454-0.029,2.009c-0.02,0.563-0.055,1.021-0.107,1.385l2.848-0.169
		v1.86h-8.866v-1.4c0.745-0.028,1.303-0.175,1.672-0.438c0.374-0.266,0.636-0.63,0.791-1.09c0.154-0.459,0.232-1.008,0.24-1.644
		c0.006-0.636,0.008-1.329,0.008-2.082V4.793z"/>
	<path fill="#212121" d="M135.457,1.68c-1.396,0-2.707,0.311-3.934,0.931c-1.225,0.62-2.291,1.5-3.202,2.639
		c-0.911,1.14-1.63,2.522-2.153,4.148c-0.526,1.627-0.789,3.44-0.789,5.439c0,1.292,0.124,2.51,0.374,3.649
		c0.252,1.141,0.606,2.192,1.068,3.158c0.463,0.969,1.013,1.834,1.654,2.601c0.64,0.769,1.352,1.416,2.134,1.951
		c0.783,0.531,1.622,0.94,2.52,1.23c0.898,0.287,1.835,0.428,2.81,0.428c0.86,0,1.715-0.1,2.566-0.3
		c0.853-0.202,1.672-0.503,2.462-0.9c0.789-0.4,1.53-0.894,2.223-1.479c0.692-0.587,1.307-1.26,1.847-2.021l1.019,0.861
		c-0.847,1.212-1.752,2.206-2.721,2.979c-0.97,0.772-1.942,1.385-2.924,1.83c-0.98,0.446-1.942,0.753-2.886,0.919
		c-0.94,0.167-1.817,0.25-2.625,0.25c-1.974,0-3.783-0.376-5.422-1.129c-1.644-0.755-3.054-1.784-4.233-3.09
		c-1.18-1.307-2.097-2.842-2.75-4.606c-0.653-1.769-0.979-3.673-0.979-5.711c0-1.28,0.123-2.552,0.373-3.82
		c0.25-1.266,0.628-2.47,1.137-3.608c0.505-1.139,1.137-2.2,1.894-3.179c0.755-0.979,1.641-1.831,2.654-2.551
		c1.011-0.719,2.153-1.282,3.423-1.689c1.27-0.406,2.668-0.61,4.192-0.61c1.488,0,2.879,0.208,4.174,0.62
		c1.293,0.413,2.551,1.04,3.77,1.879l-0.194-2.2h2.137v9.499h-1.425c-0.139-1.28-0.43-2.422-0.874-3.429
		c-0.442-1.007-1.013-1.856-1.711-2.55c-0.699-0.693-1.522-1.222-2.471-1.589C137.644,1.865,136.6,1.68,135.457,1.68z"/>
	<path fill="#212121" d="M151.899,25.463c-0.1,0.324-0.191,0.615-0.266,0.875c-0.078,0.258-0.154,0.493-0.233,0.711
		c-0.076,0.218-0.154,0.428-0.23,0.63c-0.076,0.206-0.16,0.422-0.248,0.651l3.076-0.162v1.807h-7.366v-1.359
		c0.589,0,1.07-0.126,1.441-0.376c0.372-0.249,0.687-0.606,0.943-1.065c0.256-0.462,0.49-1.008,0.7-1.646
		c0.213-0.636,0.451-1.339,0.724-2.113l8.117-23.334h0.939l8.79,23.682c0.115,0.284,0.233,0.626,0.356,1.026
		c0.123,0.398,0.236,0.807,0.346,1.224c0.11,0.424,0.192,0.836,0.251,1.242c0.057,0.406,0.08,0.765,0.066,1.075L172,28.168v1.807
		h-9.021v-1.359c0.731-0.016,1.27-0.156,1.618-0.428c0.344-0.271,0.563-0.604,0.651-0.996c0.092-0.394,0.092-0.813,0-1.264
		c-0.088-0.445-0.204-0.865-0.345-1.26l-1.387-3.907l-10.25,0.245c-0.281,0.854-0.532,1.639-0.749,2.348
		C152.299,24.066,152.093,24.77,151.899,25.463z M156.672,10.857c-0.604,1.786-1.132,3.36-1.588,4.718
		c-0.456,1.361-0.86,2.575-1.221,3.642h9.115l-2.807-7.954l-1.769-5.114h-0.078L156.672,10.857z"/>
	<g>
		<path fill="#212121" d="M52.908,28.131v1.81h-9.02v-1.358c0.729-0.016,1.274-0.16,1.616-0.432c0.348-0.27,0.564-0.603,0.656-1
			c0.085-0.387,0.085-0.809,0-1.262c-0.092-0.444-0.204-0.866-0.348-1.262l-0.958-2.72c-0.145,0.02-0.296,0.042-0.447,0.054
			c-1.339,0.119-2.665-0.233-3.972-1.046c-1.3-0.818-2.481-1.456-3.427-1.372c-1.051,0.091-2.049,0.839-2.79,1.616
			c-0.072,0.081-0.131,0.166-0.185,0.249l-0.059,0.16h0.007c-0.203,0.618-0.394,1.206-0.558,1.747
			c-0.217,0.709-0.421,1.414-0.611,2.111c-0.105,0.323-0.197,0.614-0.269,0.874c-0.079,0.255-0.158,0.491-0.236,0.711
			c-0.072,0.216-0.151,0.432-0.23,0.634c-0.072,0.202-0.157,0.422-0.25,0.649l3.079-0.164v1.81h-7.365v-1.358
			c0.59,0,1.069-0.127,1.443-0.376c0.368-0.256,0.683-0.608,0.939-1.068c0.256-0.465,0.492-1.012,0.702-1.651
			c0.21-0.638,0.453-1.337,0.722-2.117l8.115-23.361h0.945l6.217,16.766c-0.689,1.268-2.344,1.618-2.98,1.707l-0.006-0.02
			l-0.02-0.063l-2.541-7.194l-1.766-5.119h-0.079l-1.654,4.71c-0.604,1.789-1.129,3.364-1.582,4.73
			c-0.27,0.799-0.519,1.541-0.755,2.24l-0.013,0.048c-0.046,0.127-0.092,0.266-0.131,0.393c-0.111,0.338-0.223,0.655-0.328,0.96
			h0.007l-0.073,0.214c0.933-0.808,1.937-1.239,2.856-1.372c1.214-0.173,2.376-0.006,3.854,0.667c1.451,0.66,2.606,0.674,3.46,0.466
			c0.781-0.202,1.333-0.563,1.93-1.015c0.879-0.671,0.807-1.622,1.444-1.253c0.46,0.269,1.063,0.519,1.004,0.769
			c-0.125,0.534-0.368,1.386-1.201,2.384c-0.053,0.063-0.105,0.119-0.157,0.177l1.306,3.516c0.112,0.285,0.23,0.632,0.355,1.025
			c0.118,0.404,0.236,0.813,0.348,1.236c0.104,0.416,0.19,0.832,0.249,1.242c0.059,0.401,0.079,0.762,0.065,1.073L52.908,28.131z"/>
	</g>
</g>
</svg>
