<?xml version="1.0" encoding="utf-8"?>
<!-- Generator: Adobe Illustrator 16.0.0, SVG Export Plug-In . SVG Version: 6.00 Build 0)  -->
<!DOCTYPE svg PUBLIC "-//W3C//DTD SVG 1.1//EN" "http://www.w3.org/Graphics/SVG/1.1/DTD/svg11.dtd">
<svg version="1.1" id="Layer_1" xmlns="http://www.w3.org/2000/svg" xmlns:xlink="http://www.w3.org/1999/xlink" x="0px" y="0px"
	 width="192px" height="33px" viewBox="0 0 192 33" enable-background="new 0 0 192 33" xml:space="preserve">
<g>
	<path fill="#212121" d="M26.091,33.025h-2.126L4.875,6.13H4.81l0.151,19.757c0,0.795-0.004,1.572-0.011,2.331
		c-0.008,0.758-0.032,2.255-0.075,2.99l3.178-0.229L8.031,33L0,33.025v-1.233c0.673,0,1.502-0.693,1.729-0.979
		c0.316-0.4,0.536-0.961,0.73-1.32c0.193-0.363,0.314-0.754,0.365-1.175c0.05-0.421,0.075-0.811,0.075-1.171L2.942,1.832L0,2.034
		V0.009h5.239l18.726,26.265h0.043l0.042-21.108c0-1.29,0.043-2.402,0.129-3.333l-3.156,0.202V0.009h8.096v1.507
		c-0.83,0.031-1.45,0.192-1.858,0.485c-0.408,0.292-0.694,0.687-0.859,1.182c-0.165,0.495-0.244,1.082-0.236,1.756
		c0.007,0.676,0.012,1.427,0.012,2.252L26.091,33.025z"/>
	<path fill="#212121" d="M86.304,17.928c-0.014,2.007-0.225,3.921-0.634,5.741c-0.408,1.819-1.073,3.422-1.997,4.808
		c-0.923,1.385-2.137,2.489-3.64,3.313c-1.502,0.823-3.357,1.236-5.562,1.236c-2.348,0-4.316-0.322-5.905-0.966
		s-2.867-1.636-3.833-2.977c-0.966-1.342-1.657-3.046-2.073-5.112c-0.416-2.067-0.623-4.523-0.623-7.369V7.255
		c0-0.404,0.004-0.854,0.012-1.348c0.007-0.494,0.021-0.988,0.043-1.481c0.021-0.495,0.04-0.962,0.053-1.405
		c0.014-0.443,0.036-0.813,0.064-1.113l-3.157,0.135V0.089h9.878v1.504c-0.744,0-1.32,0.132-1.728,0.394s-0.709,0.581-0.903,0.954
		c-0.193,0.375-0.308,0.771-0.343,1.192c-0.035,0.419-0.053,0.785-0.053,1.1v11.595c0,1.138,0.043,2.266,0.128,3.381
		c0.086,1.116,0.247,2.176,0.483,3.18c0.237,1.003,0.566,1.933,0.988,2.786s0.969,1.596,1.643,2.225
		c0.672,0.63,1.488,1.12,2.448,1.473c0.958,0.352,2.096,0.527,3.414,0.527c1.589,0,2.953-0.302,4.091-0.897
		c1.138-0.601,2.075-1.442,2.813-2.529c0.738-1.085,1.281-2.379,1.632-3.877c0.35-1.497,0.54-3.146,0.569-4.942l0.172-12.92
		c0-1.288,0.043-2.396,0.129-3.326L81.258,2.11V0.089h8.182v1.504c-0.831,0.031-1.457,0.192-1.879,0.483
		c-0.421,0.293-0.719,0.686-0.891,1.179c-0.172,0.495-0.261,1.08-0.269,1.753c-0.007,0.673-0.011,1.423-0.011,2.246L86.304,17.928z"
		/>
	<path fill="#212121" d="M116.239,10.026c-0.028-1.391-0.129-2.603-0.301-3.636c-0.171-1.033-0.472-1.889-0.902-2.57
		c-0.429-0.681-1.009-1.19-1.74-1.527c-0.729-0.337-1.658-0.505-2.79-0.505l-3.715,0.023l-0.064,25.608
		c0,1.685-0.044,2.927-0.13,3.723l3.651-0.184V33H99.92v-1.539c0.815-0.03,1.431-0.198,1.847-0.503
		c0.414-0.307,0.708-0.717,0.88-1.229c0.171-0.512,0.257-1.114,0.257-1.804s0-1.431,0-2.228l0.065-23.84L98.415,1.88
		c-0.93,0-1.714,0.165-2.351,0.494c-0.637,0.329-1.156,0.829-1.557,1.503c-0.401,0.673-0.691,1.519-0.871,2.537
		c-0.179,1.018-0.268,2.222-0.268,3.613h-1.632l0.258-9.937h25.64l0.259,9.937H116.239z"/>
	<path fill="#212121" d="M124.377,5.277c0-0.646,0.011-1.257,0.034-1.833c0.021-0.576,0.06-1.102,0.117-1.58l-3.178,0.208V0h9.899
		v1.542c-0.831,0.033-1.453,0.197-1.869,0.496c-0.414,0.301-0.708,0.704-0.88,1.211c-0.172,0.506-0.262,1.105-0.27,1.797
		c-0.007,0.692-0.01,1.459-0.01,2.305V27.4c0,0.861-0.011,1.6-0.032,2.213c-0.021,0.616-0.061,1.123-0.119,1.523l3.18-0.185V33
		h-9.899v-1.542c0.83-0.031,1.453-0.191,1.867-0.483c0.417-0.292,0.71-0.694,0.882-1.199c0.172-0.506,0.26-1.108,0.268-1.811
		c0.007-0.698,0.01-1.463,0.01-2.291V5.277z"/>
	<path fill="#212121" d="M151.242,1.85c-1.561,0-3.023,0.343-4.392,1.025c-1.367,0.683-2.559,1.651-3.575,2.906
		c-1.018,1.255-1.819,2.777-2.404,4.567c-0.589,1.792-0.882,3.787-0.882,5.989c0,1.424,0.139,2.764,0.419,4.018
		c0.28,1.256,0.677,2.415,1.191,3.479c0.517,1.065,1.131,2.019,1.848,2.863c0.715,0.844,1.51,1.559,2.384,2.146
		c0.872,0.585,1.811,1.037,2.813,1.354c1.001,0.316,2.048,0.473,3.136,0.473c0.96,0,1.915-0.109,2.865-0.33
		c0.953-0.221,1.868-0.552,2.75-0.991c0.88-0.441,1.707-0.982,2.481-1.629c0.771-0.646,1.459-1.387,2.061-2.224l1.138,0.946
		c-0.944,1.336-1.957,2.43-3.038,3.28c-1.082,0.852-2.168,1.524-3.265,2.016c-1.095,0.49-2.169,0.829-3.221,1.013
		s-2.029,0.274-2.932,0.274c-2.204,0-4.224-0.415-6.055-1.244c-1.834-0.829-3.407-1.963-4.726-3.4
		c-1.317-1.44-2.341-3.13-3.07-5.074c-0.729-1.945-1.094-4.042-1.094-6.287c0-1.41,0.138-2.81,0.417-4.206
		c0.28-1.394,0.701-2.719,1.268-3.973c0.565-1.255,1.271-2.422,2.115-3.501c0.843-1.078,1.833-2.015,2.964-2.808
		c1.13-0.792,2.404-1.412,3.821-1.859C147.678,0.225,149.238,0,150.94,0c1.662,0,3.215,0.228,4.66,0.683s2.85,1.145,4.21,2.069
		l-0.217-2.422h2.386v10.458h-1.59c-0.156-1.409-0.482-2.667-0.978-3.775c-0.493-1.108-1.131-2.044-1.91-2.808
		c-0.781-0.763-1.7-1.346-2.76-1.75C153.684,2.053,152.517,1.85,151.242,1.85z"/>
	<path fill="#212121" d="M169.602,28.035c-0.113,0.358-0.214,0.68-0.299,0.963c-0.087,0.284-0.172,0.545-0.259,0.784
		c-0.086,0.24-0.172,0.471-0.258,0.693c-0.086,0.226-0.18,0.464-0.278,0.719l3.436-0.18v1.989h-8.225v-1.496
		c0.658,0,1.195-0.139,1.61-0.415c0.415-0.275,0.766-0.667,1.052-1.173c0.286-0.508,0.549-1.11,0.783-1.812
		c0.238-0.701,0.505-1.476,0.807-2.327l9.063-25.692h1.05l9.814,26.074c0.128,0.313,0.261,0.69,0.396,1.129
		c0.138,0.439,0.265,0.891,0.388,1.352c0.121,0.464,0.214,0.918,0.279,1.366c0.063,0.446,0.089,0.84,0.074,1.185l3.007-0.18v1.989
		h-10.071v-1.496c0.815-0.017,1.417-0.172,1.805-0.472c0.385-0.3,0.63-0.665,0.729-1.097c0.102-0.434,0.102-0.897,0-1.39
		c-0.099-0.493-0.228-0.956-0.386-1.389l-1.547-4.303l-11.445,0.271c-0.314,0.94-0.594,1.803-0.837,2.586
		C170.046,26.499,169.817,27.272,169.602,28.035z M174.929,11.955c-0.674,1.966-1.265,3.699-1.772,5.196s-0.962,2.835-1.363,4.011
		h10.179l-3.135-8.759l-1.975-5.631h-0.087L174.929,11.955z"/>
	<g>
		<path fill="#212121" d="M59.074,30.973v1.994H49.002v-1.496c0.814-0.018,1.423-0.177,1.804-0.476
			c0.388-0.298,0.631-0.664,0.733-1.101c0.095-0.427,0.095-0.892,0-1.389c-0.102-0.489-0.228-0.955-0.388-1.391l-1.07-2.993
			c-0.161,0.022-0.33,0.046-0.499,0.06c-1.496,0.131-2.976-0.259-4.435-1.153c-1.452-0.9-2.771-1.603-3.826-1.512
			c-1.173,0.101-2.287,0.925-3.115,1.78c-0.081,0.09-0.146,0.183-0.206,0.275l-0.065,0.176h0.007
			c-0.227,0.679-0.44,1.329-0.623,1.924c-0.242,0.779-0.47,1.558-0.682,2.323c-0.117,0.357-0.22,0.678-0.3,0.961
			c-0.088,0.282-0.176,0.542-0.264,0.786c-0.081,0.237-0.169,0.474-0.257,0.696c-0.081,0.222-0.176,0.464-0.279,0.717l3.438-0.183
			v1.994h-8.224v-1.496c0.66,0,1.194-0.139,1.612-0.415c0.411-0.281,0.763-0.671,1.048-1.176c0.286-0.512,0.55-1.114,0.784-1.818
			c0.235-0.702,0.506-1.473,0.806-2.329l9.06-25.724h1.056l6.941,18.461c-0.769,1.396-2.617,1.779-3.328,1.878l-0.007-0.022
			l-0.022-0.069l-2.836-7.92l-1.972-5.637h-0.088l-1.847,5.186c-0.675,1.971-1.261,3.705-1.767,5.209
			c-0.301,0.879-0.579,1.695-0.843,2.467l-0.015,0.053c-0.052,0.139-0.103,0.293-0.147,0.43c-0.124,0.373-0.249,0.724-0.366,1.061
			h0.007l-0.081,0.235c1.042-0.892,2.163-1.366,3.189-1.511c1.356-0.19,2.653-0.008,4.303,0.733c1.62,0.726,2.91,0.741,3.863,0.513
			c0.872-0.223,1.488-0.62,2.155-1.116c0.982-0.741,0.902-1.787,1.613-1.383c0.513,0.298,1.188,0.572,1.121,0.848
			c-0.139,0.588-0.411,1.527-1.341,2.626c-0.059,0.07-0.117,0.13-0.175,0.193l1.458,3.871c0.125,0.314,0.256,0.696,0.396,1.131
			c0.132,0.442,0.263,0.894,0.389,1.36c0.117,0.456,0.212,0.914,0.278,1.366c0.066,0.442,0.088,0.84,0.073,1.184L59.074,30.973z"/>
	</g>
</g>
</svg>
