<?xml version="1.0" encoding="utf-8"?>
<!-- Generator: Adobe Illustrator 16.0.0, SVG Export Plug-In . SVG Version: 6.00 Build 0)  -->
<!DOCTYPE svg PUBLIC "-//W3C//DTD SVG 1.1//EN" "http://www.w3.org/Graphics/SVG/1.1/DTD/svg11.dtd">
<svg version="1.1" id="Layer_1" xmlns="http://www.w3.org/2000/svg" xmlns:xlink="http://www.w3.org/1999/xlink" x="0px" y="0px"
	 width="151px" height="38px" viewBox="0 0 151 38" enable-background="new 0 0 151 38" xml:space="preserve">
<g>
	<g>
		<path fill="#212121" d="M20.518,25.291h-1.672L3.833,4.729h-0.05l0.118,15.103c0,0.609-0.003,1.205-0.009,1.783
			c-0.005,0.581-0.025,1.151-0.059,1.714l2.5-0.138v1.531H0v-1.153c0.529,0,0.945-0.093,1.25-0.283
			c0.304-0.189,0.531-0.422,0.684-0.697c0.152-0.276,0.248-0.576,0.288-0.896c0.039-0.323,0.059-0.619,0.059-0.896L2.313,1.443
			L0,1.598V0.049h4.12L18.846,20.13h0.034l0.034-16.138c0-0.986,0.034-1.836,0.102-2.549l-2.482,0.155V0.049h6.366v1.153
			c-0.653,0.024-1.14,0.146-1.461,0.37c-0.321,0.224-0.546,0.525-0.675,0.904c-0.129,0.379-0.191,0.827-0.186,1.343
			c0.006,0.516,0.008,1.091,0.008,1.722L20.518,25.291z"/>
		<path fill="#212121" d="M67.869,13.719c-0.011,1.539-0.178,3.005-0.499,4.399c-0.321,1.395-0.844,2.624-1.57,3.685
			c-0.727,1.063-1.68,1.908-2.863,2.54c-1.182,0.631-2.64,0.947-4.374,0.947c-1.846,0-3.395-0.248-4.643-0.739
			c-1.25-0.496-2.254-1.255-3.015-2.281c-0.76-1.029-1.303-2.335-1.63-3.919c-0.327-1.584-0.49-3.467-0.49-5.648V5.541
			c0-0.31,0.002-0.654,0.009-1.034c0.006-0.379,0.017-0.757,0.034-1.136c0.017-0.378,0.031-0.738,0.042-1.076
			c0.011-0.339,0.028-0.623,0.051-0.853l-2.482,0.103V0.047h7.768v1.153c-0.585,0-1.038,0.102-1.359,0.302
			c-0.321,0.201-0.557,0.445-0.71,0.732c-0.152,0.286-0.241,0.59-0.27,0.913c-0.029,0.321-0.042,0.603-0.042,0.843v8.885
			c0,0.874,0.034,1.738,0.101,2.592c0.068,0.855,0.194,1.668,0.38,2.438c0.186,0.769,0.445,1.48,0.776,2.134
			c0.332,0.654,0.763,1.223,1.293,1.703c0.528,0.485,1.17,0.861,1.925,1.13c0.753,0.271,1.648,0.405,2.685,0.405
			c1.25,0,2.321-0.23,3.216-0.688c0.896-0.461,1.632-1.107,2.213-1.939c0.58-0.833,1.007-1.823,1.284-2.97
			c0.275-1.148,0.424-2.411,0.447-3.789l0.135-9.902c0-0.987,0.034-1.836,0.101-2.549L63.9,1.597V0.047h6.435v1.153
			c-0.653,0.024-1.146,0.147-1.478,0.37c-0.332,0.225-0.566,0.526-0.701,0.905s-0.205,0.827-0.211,1.343s-0.008,1.091-0.008,1.722
			L67.869,13.719z"/>
		<path fill="#212121" d="M91.409,7.47c-0.023-1.046-0.103-1.958-0.237-2.734s-0.37-1.42-0.708-1.932
			c-0.339-0.512-0.794-0.895-1.369-1.148c-0.573-0.253-1.305-0.38-2.195-0.38l-2.922,0.018l-0.05,19.249
			c0,1.265-0.034,2.198-0.102,2.796l2.871-0.138v1.535h-8.122V23.58c0.642-0.023,1.125-0.149,1.453-0.379
			c0.326-0.229,0.556-0.539,0.69-0.923c0.135-0.388,0.203-0.837,0.203-1.355c0-0.518,0-1.077,0-1.675l0.052-17.92l-3.581,0.018
			c-0.732,0-1.349,0.124-1.849,0.372c-0.5,0.247-0.909,0.623-1.224,1.128c-0.316,0.506-0.543,1.142-0.684,1.908
			c-0.142,0.764-0.211,1.669-0.211,2.716h-1.284L72.344,0h20.163l0.202,7.47H91.409z"/>
		<path fill="#212121" d="M97.809,3.955c0-0.484,0.009-0.942,0.025-1.374c0.019-0.432,0.05-0.826,0.093-1.185l-2.499,0.155V0h7.785
			v1.156c-0.653,0.023-1.143,0.147-1.469,0.371c-0.327,0.227-0.558,0.528-0.692,0.908c-0.135,0.381-0.206,0.83-0.212,1.348
			c-0.005,0.519-0.008,1.094-0.008,1.727v15.03c0,0.646-0.009,1.197-0.026,1.659c-0.017,0.461-0.046,0.842-0.092,1.14l2.499-0.138
			v1.535h-7.785v-1.155c0.653-0.024,1.144-0.144,1.469-0.363c0.328-0.219,0.559-0.519,0.694-0.898
			c0.135-0.379,0.204-0.832,0.21-1.357c0.005-0.522,0.008-1.096,0.008-1.717V3.955z"/>
		<path fill="#212121" d="M118.935,1.439c-1.228,0-2.378,0.262-3.453,0.784c-1.075,0.522-2.013,1.263-2.812,2.223
			c-0.801,0.96-1.43,2.125-1.892,3.495c-0.462,1.37-0.691,2.896-0.691,4.581c0,1.09,0.108,2.114,0.329,3.074
			c0.219,0.961,0.53,1.848,0.936,2.662c0.406,0.814,0.891,1.544,1.453,2.188c0.563,0.647,1.188,1.193,1.874,1.644
			c0.687,0.448,1.424,0.795,2.213,1.037c0.788,0.24,1.609,0.361,2.465,0.361c0.754,0,1.507-0.085,2.256-0.254
			c0.748-0.168,1.468-0.421,2.161-0.758c0.692-0.338,1.342-0.753,1.95-1.246c0.606-0.494,1.148-1.062,1.621-1.701l0.895,0.725
			c-0.743,1.021-1.538,1.857-2.39,2.508c-0.85,0.652-1.705,1.166-2.567,1.544c-0.861,0.375-1.704,0.633-2.532,0.774
			c-0.826,0.141-1.597,0.21-2.304,0.21c-1.735,0-3.322-0.318-4.764-0.951c-1.44-0.636-2.68-1.503-3.715-2.604
			c-1.036-1.1-1.841-2.393-2.415-3.881c-0.574-1.487-0.861-3.091-0.861-4.81c0-1.078,0.109-2.149,0.33-3.218
			c0.22-1.066,0.551-2.079,0.997-3.039c0.443-0.96,0.998-1.853,1.662-2.678s1.441-1.542,2.33-2.148
			c0.889-0.607,1.892-1.081,3.005-1.422c1.116-0.343,2.344-0.515,3.683-0.515c1.306,0,2.527,0.174,3.665,0.522
			c1.136,0.347,2.241,0.875,3.31,1.583l-0.17-1.854h1.874v8.001h-1.248c-0.124-1.078-0.38-2.04-0.769-2.888
			c-0.389-0.848-0.89-1.563-1.503-2.147c-0.614-0.583-1.336-1.029-2.17-1.338C120.854,1.594,119.937,1.439,118.935,1.439z"/>
		<path fill="#212121" d="M133.373,21.003c-0.09,0.269-0.168,0.51-0.236,0.722c-0.067,0.215-0.136,0.411-0.202,0.591
			c-0.068,0.18-0.137,0.354-0.204,0.521c-0.067,0.169-0.141,0.349-0.22,0.539l2.703-0.134v1.494h-6.468v-1.125
			c0.518,0,0.939-0.104,1.267-0.311c0.326-0.208,0.602-0.502,0.827-0.882c0.226-0.382,0.431-0.835,0.616-1.36
			c0.187-0.527,0.397-1.11,0.633-1.75L139.217,0h0.825l7.719,19.595c0.101,0.235,0.205,0.519,0.313,0.848
			c0.107,0.332,0.208,0.67,0.304,1.017c0.097,0.348,0.17,0.689,0.221,1.026c0.049,0.335,0.069,0.633,0.058,0.89l2.364-0.134v1.494
			h-7.92v-1.125c0.643-0.011,1.114-0.128,1.42-0.353c0.304-0.225,0.494-0.501,0.572-0.824c0.08-0.326,0.08-0.676,0-1.045
			c-0.078-0.37-0.18-0.719-0.303-1.044l-1.217-3.233l-9,0.202c-0.249,0.708-0.467,1.356-0.658,1.945
			C133.722,19.848,133.542,20.43,133.373,21.003z M137.561,8.917c-0.529,1.479-0.994,2.78-1.393,3.905
			c-0.4,1.125-0.757,2.13-1.072,3.014h8.004l-2.465-6.583l-1.554-4.232h-0.068L137.561,8.917z"/>
		<g>
			<path fill="#212121" d="M46.455,23.239v1.495h-7.919v-1.122c0.64-0.012,1.117-0.131,1.417-0.355
				c0.306-0.224,0.496-0.499,0.576-0.825c0.075-0.321,0.075-0.672,0-1.043c-0.081-0.367-0.179-0.718-0.305-1.044l-0.842-2.248
				c-0.126,0.017-0.259,0.035-0.392,0.046c-1.176,0.098-2.34-0.195-3.488-0.865c-1.141-0.676-2.178-1.204-3.008-1.135
				c-0.923,0.075-1.799,0.693-2.45,1.335c-0.063,0.069-0.115,0.138-0.162,0.207l-0.051,0.133h0.006
				c-0.18,0.509-0.347,0.997-0.49,1.444c-0.191,0.585-0.37,1.169-0.537,1.743c-0.092,0.27-0.173,0.51-0.237,0.721
				c-0.069,0.213-0.138,0.408-0.207,0.592c-0.063,0.178-0.133,0.355-0.202,0.521c-0.063,0.166-0.138,0.35-0.219,0.538l2.703-0.137
				v1.495h-6.467v-1.122c0.519,0,0.938-0.104,1.267-0.31c0.323-0.213,0.6-0.505,0.825-0.883c0.224-0.385,0.431-0.837,0.616-1.363
				c0.184-0.528,0.398-1.107,0.633-1.75L34.65,0.001h0.83l5.459,13.854c-0.605,1.049-2.058,1.336-2.617,1.411l-0.006-0.018
				l-0.017-0.051l-2.231-5.944l-1.55-4.23h-0.069l-1.452,3.892c-0.53,1.479-0.992,2.78-1.39,3.909
				c-0.237,0.659-0.456,1.272-0.663,1.852l-0.012,0.04c-0.04,0.103-0.081,0.218-0.115,0.321c-0.098,0.281-0.196,0.545-0.289,0.796
				h0.006l-0.064,0.177c0.819-0.67,1.701-1.026,2.508-1.134c1.066-0.144,2.087-0.006,3.383,0.55
				c1.274,0.544,2.289,0.557,3.038,0.385c0.686-0.166,1.17-0.465,1.695-0.837c0.772-0.556,0.709-1.342,1.269-1.038
				c0.403,0.224,0.933,0.431,0.881,0.637c-0.109,0.44-0.323,1.147-1.054,1.972c-0.046,0.051-0.092,0.097-0.138,0.144l1.146,2.905
				c0.098,0.235,0.202,0.523,0.311,0.848c0.104,0.334,0.207,0.672,0.306,1.021c0.092,0.344,0.167,0.688,0.219,1.026
				c0.051,0.332,0.069,0.632,0.058,0.888L46.455,23.239z"/>
		</g>
	</g>
	<g>
		<g>
			<path fill="#888888" d="M16.314,36.606c0,0.188-0.003,0.35-0.007,0.484c-0.005,0.135-0.015,0.245-0.028,0.332l1.059-0.038v0.446
				h-2.644v-0.336c0.196-0.007,0.343-0.043,0.441-0.106c0.097-0.065,0.167-0.151,0.208-0.262c0.04-0.111,0.061-0.244,0.063-0.397
				c0.001-0.153,0.002-0.32,0.002-0.502v-4.465c0-0.141,0.003-0.276,0.008-0.401c0.005-0.127,0.015-0.241,0.028-0.346l-0.75,0.044
				v-0.453h4.813l0.056,1.81h-0.345c0-0.306-0.038-0.554-0.114-0.743c-0.076-0.19-0.18-0.338-0.309-0.443
				c-0.13-0.105-0.281-0.176-0.457-0.212c-0.173-0.034-0.358-0.051-0.554-0.048l-0.755,0.021c-0.193,0.007-0.338,0.043-0.438,0.108
				s-0.17,0.154-0.21,0.268c-0.04,0.111-0.062,0.246-0.063,0.397c-0.002,0.152-0.002,0.317-0.002,0.495v1.783h1.804l-0.076-0.891
				h0.461v2.172h-0.34c0-0.202-0.018-0.362-0.053-0.48c-0.035-0.121-0.091-0.213-0.167-0.278c-0.076-0.064-0.172-0.108-0.289-0.129
				c-0.116-0.02-0.257-0.029-0.423-0.029c-0.047,0-0.096,0-0.146,0c-0.051,0-0.308,0.013-0.771,0.035V36.606z"/>
			<path fill="#888888" d="M25.283,36.712c-0.027,0.08-0.05,0.153-0.071,0.216c-0.021,0.066-0.04,0.124-0.061,0.178
				c-0.021,0.055-0.041,0.106-0.061,0.157c-0.021,0.05-0.043,0.104-0.065,0.16l0.81-0.038v0.446h-1.941v-0.336
				c0.156,0,0.283-0.032,0.38-0.093c0.098-0.064,0.181-0.151,0.249-0.266c0.067-0.114,0.129-0.251,0.185-0.41
				c0.056-0.156,0.119-0.333,0.189-0.522l2.138-5.792h0.249l2.315,5.876c0.03,0.072,0.062,0.156,0.093,0.257
				c0.032,0.098,0.063,0.199,0.091,0.305c0.029,0.104,0.051,0.207,0.067,0.307c0.015,0.102,0.02,0.19,0.017,0.267l0.709-0.038v0.446
				H28.2v-0.336c0.193-0.004,0.335-0.04,0.426-0.106c0.091-0.067,0.148-0.15,0.173-0.247c0.023-0.099,0.023-0.204,0-0.314
				c-0.025-0.11-0.055-0.215-0.092-0.313l-0.364-0.971l-2.701,0.062c-0.074,0.213-0.14,0.406-0.197,0.583
				C25.388,36.365,25.333,36.54,25.283,36.712z M26.539,33.087c-0.158,0.442-0.298,0.832-0.418,1.17
				c-0.12,0.338-0.228,0.64-0.322,0.905H28.2l-0.739-1.977l-0.466-1.27h-0.02L26.539,33.087z"/>
			<path fill="#888888" d="M35.801,37.912h-0.538l-0.06-2.196h0.4c0.02,0.305,0.086,0.572,0.198,0.804
				c0.111,0.229,0.257,0.421,0.438,0.576c0.181,0.155,0.392,0.272,0.631,0.351c0.24,0.08,0.497,0.12,0.77,0.12
				c0.203,0,0.394-0.027,0.575-0.086c0.181-0.055,0.339-0.137,0.476-0.246c0.137-0.108,0.245-0.243,0.324-0.405
				c0.08-0.161,0.119-0.345,0.119-0.555c0-0.251-0.056-0.468-0.167-0.649c-0.111-0.181-0.259-0.342-0.443-0.48
				s-0.394-0.266-0.628-0.378c-0.234-0.112-0.474-0.226-0.717-0.337c-0.243-0.114-0.482-0.234-0.717-0.359
				c-0.234-0.126-0.444-0.271-0.628-0.437c-0.184-0.167-0.332-0.362-0.443-0.583c-0.111-0.222-0.167-0.485-0.167-0.792
				c0-0.117,0.014-0.243,0.041-0.377s0.072-0.268,0.134-0.403c0.063-0.134,0.146-0.265,0.249-0.391
				c0.103-0.126,0.232-0.235,0.387-0.331c0.156-0.096,0.34-0.174,0.552-0.229c0.213-0.059,0.458-0.086,0.74-0.086
				c0.135,0,0.278,0.008,0.431,0.023c0.151,0.018,0.306,0.048,0.463,0.087c0.157,0.04,0.313,0.096,0.469,0.164
				c0.155,0.069,0.303,0.155,0.445,0.26l-0.041-0.443h0.527v2.263h-0.374c-0.017-0.251-0.065-0.492-0.145-0.727
				c-0.08-0.233-0.194-0.439-0.347-0.618c-0.152-0.183-0.34-0.326-0.562-0.436c-0.224-0.11-0.486-0.165-0.791-0.165
				c-0.217,0-0.407,0.032-0.573,0.098c-0.166,0.067-0.304,0.154-0.415,0.265c-0.112,0.111-0.196,0.241-0.254,0.388
				c-0.057,0.146-0.086,0.3-0.086,0.461c0,0.235,0.056,0.439,0.17,0.612c0.113,0.175,0.262,0.328,0.449,0.462
				c0.185,0.135,0.396,0.259,0.633,0.369c0.236,0.112,0.478,0.223,0.724,0.336c0.247,0.111,0.489,0.232,0.725,0.361
				c0.236,0.129,0.448,0.279,0.633,0.449s0.335,0.367,0.448,0.591c0.114,0.228,0.17,0.49,0.17,0.797
				c0,0.285-0.054,0.548-0.162,0.788c-0.108,0.24-0.266,0.447-0.471,0.62c-0.206,0.174-0.46,0.309-0.763,0.406
				c-0.302,0.096-0.646,0.146-1.031,0.146c-0.155,0-0.315-0.012-0.479-0.033c-0.164-0.022-0.326-0.053-0.485-0.097
				c-0.161-0.045-0.316-0.1-0.466-0.167c-0.151-0.067-0.29-0.145-0.419-0.232L35.801,37.912z"/>
			<path fill="#888888" d="M50.539,34.34l-3.713,0.046v2.221c0,0.188-0.002,0.35-0.007,0.484s-0.015,0.245-0.028,0.332l0.749-0.038
				v0.446h-2.335v-0.336c0.196-0.007,0.343-0.043,0.441-0.106c0.098-0.065,0.167-0.151,0.208-0.262
				c0.041-0.111,0.062-0.244,0.063-0.397c0.002-0.153,0.003-0.32,0.003-0.502v-4.465c0-0.141,0.003-0.276,0.008-0.401
				c0.005-0.127,0.014-0.241,0.028-0.346l-0.75,0.044v-0.453h2.335v0.339c-0.196,0.007-0.342,0.043-0.44,0.108
				c-0.098,0.065-0.167,0.152-0.208,0.265c-0.041,0.112-0.062,0.243-0.063,0.394c-0.001,0.15-0.002,0.319-0.002,0.504v1.716h3.713
				v-2.169c0-0.29,0.01-0.539,0.03-0.747l-0.75,0.044v-0.453h2.336v0.339c-0.192,0.007-0.338,0.043-0.438,0.108
				c-0.1,0.065-0.17,0.152-0.21,0.265s-0.062,0.243-0.063,0.394c-0.002,0.15-0.003,0.319-0.003,0.504v4.391
				c0,0.37-0.01,0.643-0.031,0.816l0.745-0.038v0.446h-2.336v-0.336c0.196-0.007,0.344-0.043,0.444-0.106
				c0.099-0.065,0.169-0.151,0.209-0.262c0.042-0.111,0.062-0.244,0.064-0.397c0.001-0.153,0.002-0.32,0.002-0.502V34.34z"/>
			<path fill="#888888" d="M58.16,31.763c0-0.141,0.002-0.276,0.007-0.401c0.005-0.127,0.014-0.241,0.028-0.346l-0.75,0.044v-0.453
				h2.335v0.339c-0.195,0.007-0.342,0.043-0.441,0.108c-0.098,0.065-0.167,0.152-0.207,0.265c-0.041,0.112-0.062,0.243-0.063,0.394
				c-0.002,0.15-0.002,0.319-0.002,0.504v4.391c0,0.188-0.003,0.35-0.008,0.484c-0.005,0.135-0.015,0.245-0.028,0.332l0.75-0.038
				v0.446h-2.335v-0.336c0.195-0.007,0.343-0.043,0.441-0.106c0.098-0.065,0.167-0.151,0.208-0.262
				c0.041-0.111,0.062-0.244,0.063-0.397c0.002-0.153,0.002-0.32,0.002-0.502V31.763z"/>
			<path fill="#888888" d="M64.974,34.219c0-0.288,0.032-0.581,0.096-0.882c0.065-0.299,0.163-0.587,0.294-0.867
				c0.131-0.281,0.297-0.544,0.497-0.789c0.199-0.244,0.432-0.461,0.699-0.645c0.268-0.185,0.569-0.33,0.907-0.437
				c0.338-0.105,0.711-0.158,1.12-0.158c0.422,0,0.807,0.054,1.152,0.161c0.347,0.108,0.657,0.253,0.93,0.436
				c0.273,0.183,0.51,0.399,0.711,0.646c0.202,0.246,0.368,0.51,0.502,0.791c0.133,0.28,0.232,0.569,0.298,0.868
				c0.066,0.3,0.099,0.591,0.099,0.876c0,0.287-0.033,0.577-0.099,0.874s-0.164,0.587-0.293,0.868
				c-0.13,0.279-0.295,0.544-0.494,0.79c-0.199,0.248-0.433,0.463-0.702,0.648c-0.269,0.184-0.571,0.331-0.907,0.438
				c-0.335,0.106-0.708,0.161-1.117,0.161c-0.439,0-0.834-0.054-1.188-0.156c-0.353-0.104-0.666-0.245-0.939-0.427
				c-0.274-0.179-0.509-0.39-0.707-0.635c-0.197-0.242-0.36-0.505-0.487-0.783c-0.126-0.278-0.22-0.568-0.281-0.874
				C65.005,34.82,64.974,34.52,64.974,34.219z M65.992,34.03c0,0.256,0.024,0.521,0.071,0.794s0.119,0.543,0.215,0.806
				c0.096,0.261,0.218,0.51,0.364,0.747c0.147,0.237,0.321,0.444,0.522,0.621c0.201,0.176,0.428,0.316,0.679,0.42
				c0.251,0.105,0.533,0.157,0.843,0.157c0.284,0,0.544-0.042,0.781-0.129c0.236-0.086,0.449-0.204,0.638-0.353
				c0.189-0.15,0.355-0.327,0.497-0.53c0.141-0.203,0.26-0.422,0.354-0.656c0.095-0.231,0.167-0.481,0.215-0.746
				c0.049-0.267,0.073-0.516,0.073-0.747c0-0.248-0.027-0.524-0.081-0.827c-0.054-0.303-0.133-0.586-0.237-0.848
				c-0.105-0.265-0.233-0.514-0.385-0.744c-0.152-0.229-0.328-0.429-0.527-0.598c-0.199-0.172-0.422-0.305-0.667-0.401
				c-0.244-0.098-0.51-0.146-0.798-0.146c-0.425,0-0.798,0.094-1.12,0.282c-0.321,0.188-0.587,0.435-0.8,0.735
				c-0.213,0.302-0.373,0.643-0.479,1.021C66.046,33.268,65.992,33.648,65.992,34.03z"/>
			<path fill="#888888" d="M83.544,37.998h-0.502l-4.504-6.021h-0.017l0.037,4.422c0,0.18-0.001,0.354-0.003,0.522
				c-0.002,0.171-0.007,0.339-0.018,0.502l0.749-0.038v0.446h-1.9v-0.336c0.158,0,0.284-0.028,0.375-0.084s0.161-0.124,0.206-0.204
				s0.074-0.169,0.086-0.264c0.013-0.093,0.019-0.181,0.019-0.262l0.01-5.666l-0.695,0.044v-0.453h1.236l4.419,5.881h0.01
				l0.011-4.725c0-0.291,0.01-0.539,0.03-0.747l-0.744,0.044v-0.453h1.909v0.339c-0.196,0.007-0.344,0.043-0.439,0.108
				c-0.097,0.065-0.163,0.152-0.202,0.265c-0.04,0.111-0.057,0.242-0.056,0.393c0.002,0.151,0.003,0.319,0.003,0.504L83.544,37.998z
				"/>
			<path fill="#888888" d="M96.935,37.912h-0.537l-0.062-2.196h0.4c0.021,0.305,0.087,0.572,0.198,0.804
				c0.111,0.229,0.256,0.421,0.438,0.576c0.181,0.155,0.391,0.272,0.632,0.351c0.239,0.08,0.496,0.12,0.77,0.12
				c0.202,0,0.395-0.027,0.575-0.086c0.18-0.055,0.34-0.137,0.478-0.246c0.136-0.108,0.243-0.243,0.323-0.405
				c0.078-0.161,0.118-0.345,0.118-0.555c0-0.251-0.056-0.468-0.166-0.649c-0.112-0.181-0.26-0.342-0.443-0.48
				c-0.186-0.139-0.395-0.266-0.63-0.378c-0.233-0.112-0.474-0.226-0.717-0.337c-0.243-0.114-0.481-0.234-0.715-0.359
				c-0.235-0.126-0.446-0.271-0.629-0.437c-0.185-0.167-0.332-0.362-0.443-0.583c-0.112-0.222-0.168-0.485-0.168-0.792
				c0-0.117,0.014-0.243,0.041-0.377c0.026-0.134,0.07-0.268,0.135-0.403c0.062-0.134,0.145-0.265,0.247-0.391
				s0.231-0.235,0.387-0.331c0.156-0.096,0.34-0.174,0.555-0.229c0.211-0.059,0.458-0.086,0.737-0.086
				c0.137,0,0.28,0.008,0.432,0.023c0.152,0.018,0.307,0.048,0.463,0.087c0.158,0.04,0.314,0.096,0.471,0.164
				c0.154,0.069,0.303,0.155,0.444,0.26l-0.04-0.443h0.527v2.263h-0.377c-0.016-0.251-0.063-0.492-0.144-0.727
				c-0.079-0.233-0.195-0.439-0.347-0.618c-0.152-0.183-0.339-0.326-0.562-0.436c-0.224-0.11-0.487-0.165-0.791-0.165
				c-0.217,0-0.407,0.032-0.572,0.098c-0.166,0.067-0.305,0.154-0.416,0.265c-0.111,0.111-0.195,0.241-0.253,0.388
				c-0.057,0.146-0.086,0.3-0.086,0.461c0,0.235,0.056,0.439,0.169,0.612c0.113,0.175,0.263,0.328,0.449,0.462
				c0.187,0.135,0.396,0.259,0.632,0.369c0.237,0.112,0.479,0.223,0.727,0.336c0.245,0.111,0.488,0.232,0.724,0.361
				c0.236,0.129,0.447,0.279,0.632,0.449c0.188,0.17,0.337,0.367,0.45,0.591c0.112,0.228,0.169,0.49,0.169,0.797
				c0,0.285-0.054,0.548-0.162,0.788c-0.107,0.24-0.265,0.447-0.472,0.62c-0.205,0.174-0.46,0.309-0.762,0.406
				c-0.303,0.096-0.646,0.146-1.031,0.146c-0.156,0-0.316-0.012-0.479-0.033c-0.164-0.022-0.326-0.053-0.486-0.097
				c-0.159-0.045-0.315-0.1-0.466-0.167c-0.151-0.067-0.291-0.145-0.419-0.232L96.935,37.912z"/>
			<path fill="#888888" d="M111.672,34.34l-3.713,0.046v2.221c0,0.188-0.003,0.35-0.007,0.484c-0.006,0.135-0.016,0.245-0.029,0.332
				l0.751-0.038v0.446h-2.336v-0.336c0.195-0.007,0.342-0.043,0.44-0.106c0.099-0.065,0.169-0.151,0.208-0.262
				c0.041-0.111,0.062-0.244,0.064-0.397c0.001-0.153,0.002-0.32,0.002-0.502v-4.465c0-0.141,0.002-0.276,0.008-0.401
				c0.005-0.127,0.015-0.241,0.028-0.346l-0.751,0.044v-0.453h2.336v0.339c-0.196,0.007-0.343,0.043-0.441,0.108
				c-0.098,0.065-0.167,0.152-0.206,0.265c-0.041,0.112-0.063,0.243-0.064,0.394c-0.002,0.15-0.003,0.319-0.003,0.504v1.716h3.713
				v-2.169c0-0.29,0.011-0.539,0.031-0.747l-0.751,0.044v-0.453h2.337v0.339c-0.193,0.007-0.34,0.043-0.438,0.108
				c-0.1,0.065-0.169,0.152-0.211,0.265c-0.04,0.112-0.062,0.243-0.063,0.394c-0.001,0.15-0.002,0.319-0.002,0.504v4.391
				c0,0.37-0.01,0.643-0.029,0.816l0.744-0.038v0.446h-2.337v-0.336c0.197-0.007,0.345-0.043,0.445-0.106
				c0.099-0.065,0.169-0.151,0.209-0.262c0.041-0.111,0.061-0.244,0.063-0.397c0.001-0.153,0.002-0.32,0.002-0.502V34.34z"/>
			<path fill="#888888" d="M118.483,34.219c0-0.288,0.031-0.581,0.096-0.882c0.063-0.299,0.163-0.587,0.294-0.867
				c0.132-0.281,0.297-0.544,0.496-0.789c0.199-0.244,0.433-0.461,0.699-0.645c0.266-0.185,0.569-0.33,0.906-0.437
				c0.338-0.105,0.712-0.158,1.12-0.158c0.424,0,0.807,0.054,1.151,0.161c0.347,0.108,0.657,0.253,0.932,0.436
				c0.272,0.183,0.51,0.399,0.711,0.646s0.367,0.51,0.502,0.791c0.134,0.28,0.233,0.569,0.299,0.868c0.066,0.3,0.1,0.591,0.1,0.876
				c0,0.287-0.033,0.577-0.1,0.874c-0.065,0.297-0.164,0.587-0.295,0.868c-0.13,0.279-0.294,0.544-0.493,0.79
				c-0.199,0.248-0.433,0.463-0.702,0.648c-0.268,0.184-0.57,0.331-0.906,0.438s-0.708,0.161-1.117,0.161
				c-0.438,0-0.836-0.054-1.188-0.156c-0.353-0.104-0.667-0.245-0.938-0.427c-0.273-0.179-0.511-0.39-0.707-0.635
				c-0.199-0.242-0.36-0.505-0.486-0.783c-0.127-0.278-0.221-0.568-0.281-0.874C118.513,34.82,118.483,34.52,118.483,34.219z
				 M119.502,34.03c0,0.256,0.022,0.521,0.07,0.794c0.047,0.273,0.117,0.543,0.216,0.806c0.095,0.261,0.217,0.51,0.364,0.747
				c0.146,0.237,0.32,0.444,0.521,0.621c0.2,0.176,0.426,0.316,0.679,0.42c0.252,0.105,0.533,0.157,0.844,0.157
				c0.284,0,0.544-0.042,0.78-0.129c0.235-0.086,0.448-0.204,0.638-0.353c0.19-0.15,0.354-0.327,0.496-0.53
				c0.143-0.203,0.26-0.422,0.355-0.656c0.095-0.231,0.166-0.481,0.215-0.746c0.05-0.267,0.074-0.516,0.074-0.747
				c0-0.248-0.026-0.524-0.082-0.827c-0.054-0.303-0.134-0.586-0.237-0.848c-0.104-0.265-0.233-0.514-0.386-0.744
				c-0.152-0.229-0.327-0.429-0.526-0.598c-0.2-0.172-0.422-0.305-0.666-0.401c-0.245-0.098-0.511-0.146-0.798-0.146
				c-0.427,0-0.8,0.094-1.12,0.282c-0.32,0.188-0.588,0.435-0.801,0.735c-0.212,0.302-0.371,0.643-0.479,1.021
				C119.554,33.268,119.502,33.648,119.502,34.03z"/>
			<path fill="#888888" d="M132.866,35.116c-0.034,0-0.087,0-0.161,0c-0.071,0-0.142-0.002-0.209-0.006v1.495
				c0,0.188-0.003,0.351-0.008,0.485s-0.014,0.245-0.027,0.332l0.958-0.049v0.457h-2.544v-0.336
				c0.196-0.007,0.344-0.043,0.441-0.106c0.098-0.065,0.167-0.151,0.208-0.262c0.04-0.11,0.06-0.244,0.063-0.397
				c0.001-0.152,0.002-0.32,0.002-0.502v-4.461c0-0.141,0.002-0.275,0.008-0.4c0.005-0.127,0.015-0.241,0.028-0.347l-0.75,0.046
				v-0.459c0.366-0.007,0.739-0.011,1.126-0.012c0.384-0.002,0.781-0.003,1.19-0.003c1.005,0,1.771,0.169,2.294,0.505
				c0.562,0.367,0.842,0.9,0.842,1.605c0,0.146-0.017,0.305-0.049,0.479c-0.032,0.176-0.097,0.355-0.194,0.541
				c-0.099,0.188-0.234,0.364-0.403,0.534c-0.171,0.171-0.384,0.317-0.643,0.443c-0.26,0.126-0.568,0.228-0.925,0.304
				C133.754,35.078,133.34,35.116,132.866,35.116z M132.496,34.685c0.129,0.015,0.24,0.024,0.336,0.028
				c0.099,0.003,0.21,0.005,0.339,0.005c0.294,0,0.571-0.043,0.833-0.131c0.261-0.086,0.489-0.214,0.683-0.381
				c0.195-0.164,0.351-0.366,0.463-0.604c0.112-0.237,0.169-0.507,0.169-0.81c0-0.325-0.052-0.603-0.156-0.83
				c-0.105-0.229-0.253-0.414-0.441-0.556c-0.189-0.143-0.416-0.246-0.68-0.31c-0.264-0.064-0.554-0.096-0.87-0.096
				c-0.187,0-0.327,0.028-0.419,0.087c-0.094,0.06-0.159,0.142-0.197,0.249c-0.04,0.109-0.059,0.237-0.059,0.385
				c0,0.149,0,0.316,0,0.5V34.685z"/>
		</g>
		<g>
			<rect x="0" y="33.774" fill="#888888" width="7.733" height="0.859"/>
			<rect x="143.286" y="33.774" fill="#888888" width="7.733" height="0.859"/>
		</g>
	</g>
</g>
</svg>
