<?xml version="1.0" encoding="utf-8"?>
<!-- Generator: Adobe Illustrator 16.0.0, SVG Export Plug-In . SVG Version: 6.00 Build 0)  -->
<!DOCTYPE svg PUBLIC "-//W3C//DTD SVG 1.1//EN" "http://www.w3.org/Graphics/SVG/1.1/DTD/svg11.dtd">
<svg version="1.1" id="Layer_1" xmlns="http://www.w3.org/2000/svg" xmlns:xlink="http://www.w3.org/1999/xlink" x="0px" y="0px"
	 width="237px" height="60px" viewBox="0 0 237 60" enable-background="new 0 0 237 60" xml:space="preserve">
<g>
	<g>
		<path fill="#212121" d="M32.202,39.875h-2.625L6.016,7.458h-0.08l0.185,23.814c0,0.959-0.004,1.896-0.013,2.811
			c-0.01,0.914-0.04,1.814-0.093,2.701l3.922-0.217v2.414H0v-1.818c0.831,0,1.484-0.146,1.961-0.445
			c0.477-0.301,0.835-0.668,1.073-1.102c0.238-0.436,0.388-0.906,0.451-1.414c0.062-0.508,0.092-0.979,0.092-1.41L3.631,2.276
			L0,2.521V0.079h6.466l23.111,31.66h0.053l0.053-25.444c0-1.555,0.053-2.895,0.158-4.019l-3.896,0.245V0.079h9.993v1.817
			c-1.026,0.038-1.79,0.232-2.293,0.584c-0.503,0.353-0.857,0.828-1.06,1.425c-0.203,0.597-0.3,1.304-0.291,2.118
			c0.008,0.813,0.013,1.719,0.013,2.714L32.202,39.875z"/>
		<path fill="#212121" d="M106.515,21.632c-0.018,2.425-0.279,4.737-0.782,6.936c-0.503,2.199-1.325,4.136-2.464,5.812
			c-1.14,1.672-2.638,3.008-4.493,4.006c-1.855,0.994-4.144,1.49-6.864,1.49c-2.899,0-5.327-0.389-7.289-1.166
			c-1.96-0.779-3.538-1.977-4.729-3.596c-1.193-1.623-2.046-3.682-2.559-6.178c-0.512-2.498-0.768-5.466-0.768-8.906V8.735
			c0-0.488,0.003-1.031,0.013-1.629c0.009-0.597,0.027-1.194,0.054-1.791c0.027-0.598,0.049-1.164,0.066-1.698
			c0.018-0.535,0.043-0.982,0.079-1.345l-3.896,0.163v-2.36h12.192v1.817c-0.918,0-1.63,0.159-2.133,0.476
			c-0.503,0.317-0.875,0.702-1.114,1.154c-0.238,0.452-0.379,0.931-0.423,1.439c-0.044,0.506-0.066,0.949-0.066,1.329v14.01
			c0,1.376,0.053,2.739,0.159,4.086c0.106,1.349,0.305,2.629,0.596,3.843c0.292,1.211,0.699,2.334,1.219,3.366
			c0.521,1.031,1.197,1.926,2.028,2.688c0.83,0.762,1.837,1.354,3.021,1.779c1.182,0.424,2.588,0.637,4.213,0.637
			c1.962,0,3.645-0.361,5.049-1.084c1.405-0.727,2.561-1.742,3.471-3.057c0.911-1.312,1.582-2.874,2.015-4.683
			s0.667-3.8,0.701-5.973l0.213-15.612c0-1.557,0.053-2.895,0.159-4.019l-3.896,0.244V0.076h10.098v1.817
			c-1.025,0.038-1.797,0.232-2.319,0.584c-0.521,0.353-0.888,0.829-1.1,1.425c-0.211,0.598-0.322,1.304-0.331,2.118
			c-0.009,0.814-0.013,1.72-0.013,2.714L106.515,21.632z"/>
		<path fill="#212121" d="M143.46,11.777c-0.036-1.649-0.158-3.086-0.37-4.31c-0.214-1.224-0.584-2.239-1.114-3.047
			c-0.529-0.806-1.245-1.41-2.147-1.809c-0.899-0.398-2.048-0.598-3.444-0.598l-4.586,0.027l-0.079,30.348
			c0,1.996-0.054,3.467-0.159,4.41l4.507-0.217v2.42h-12.748v-1.824c1.006-0.035,1.767-0.234,2.279-0.596
			c0.512-0.363,0.874-0.848,1.086-1.457c0.213-0.607,0.318-1.318,0.318-2.137c0-0.817,0-1.695,0-2.641l0.08-28.253l-5.62,0.028
			c-1.147,0-2.114,0.195-2.901,0.585c-0.786,0.389-1.427,0.983-1.922,1.78c-0.495,0.799-0.853,1.801-1.073,3.006
			c-0.221,1.206-0.331,2.634-0.331,4.283h-2.015L113.539,0h31.645l0.316,11.777H143.46z"/>
		<path fill="#212121" d="M153.505,6.236c0-0.764,0.014-1.485,0.041-2.166c0.026-0.681,0.075-1.303,0.146-1.868l-3.923,0.246V0
			h12.219v1.822c-1.025,0.038-1.795,0.233-2.308,0.586c-0.512,0.355-0.874,0.832-1.087,1.431c-0.212,0.598-0.322,1.307-0.33,2.124
			c-0.01,0.819-0.014,1.725-0.014,2.723v23.698c0,1.018-0.014,1.889-0.04,2.615c-0.026,0.729-0.074,1.328-0.146,1.799l3.924-0.217
			v2.42h-12.219V37.18c1.024-0.037,1.792-0.227,2.305-0.57c0.514-0.348,0.875-0.818,1.086-1.418
			c0.214-0.598,0.324-1.311,0.334-2.139c0.008-0.826,0.012-1.73,0.012-2.71V6.236z"/>
		<path fill="#212121" d="M186.661,2.269c-1.927,0-3.733,0.412-5.421,1.237c-1.688,0.823-3.159,1.991-4.412,3.505
			c-1.254,1.514-2.244,3.35-2.968,5.51c-0.726,2.16-1.087,4.568-1.087,7.224c0,1.718,0.171,3.333,0.517,4.848
			c0.344,1.514,0.835,2.912,1.47,4.196c0.636,1.284,1.396,2.436,2.279,3.453c0.884,1.017,1.864,1.88,2.941,2.589
			c1.079,0.707,2.235,1.252,3.474,1.635c1.236,0.381,2.526,0.568,3.867,0.568c1.187,0,2.364-0.133,3.539-0.398
			c1.176-0.264,2.306-0.664,3.394-1.193c1.087-0.533,2.105-1.186,3.061-1.967c0.954-0.777,1.802-1.672,2.545-2.682l1.403,1.143
			c-1.165,1.609-2.415,2.93-3.75,3.957c-1.335,1.025-2.676,1.838-4.028,2.43c-1.351,0.592-2.677,1-3.975,1.223
			c-1.299,0.221-2.505,0.33-3.617,0.33c-2.722,0-5.214-0.5-7.476-1.5c-2.262-0.998-4.205-2.367-5.83-4.104s-2.89-3.774-3.79-6.121
			c-0.902-2.346-1.351-4.874-1.351-7.583c0-1.7,0.172-3.389,0.516-5.072c0.346-1.683,0.866-3.28,1.563-4.792
			c0.699-1.514,1.568-2.923,2.611-4.223c1.042-1.301,2.262-2.431,3.658-3.387c1.395-0.956,2.967-1.703,4.717-2.244
			c1.75-0.54,3.675-0.81,5.778-0.81c2.048,0,3.965,0.275,5.75,0.823c1.783,0.549,3.517,1.381,5.194,2.497l-0.266-2.922h2.942v12.616
			h-1.96c-0.193-1.7-0.598-3.217-1.206-4.555c-0.61-1.337-1.396-2.466-2.358-3.387c-0.965-0.919-2.099-1.623-3.407-2.111
			C189.674,2.514,188.232,2.269,186.661,2.269z"/>
		<path fill="#212121" d="M209.32,33.113c-0.142,0.426-0.265,0.807-0.37,1.143c-0.107,0.338-0.215,0.646-0.32,0.93
			s-0.211,0.557-0.317,0.822c-0.104,0.266-0.221,0.549-0.344,0.85l4.24-0.211v2.355h-10.151v-1.773c0.813,0,1.476-0.164,1.988-0.49
			c0.512-0.328,0.944-0.791,1.3-1.391c0.352-0.602,0.675-1.316,0.966-2.146c0.292-0.83,0.624-1.75,0.995-2.756L218.49,0h1.299
			L231.9,30.896c0.16,0.372,0.323,0.818,0.491,1.339c0.167,0.521,0.326,1.055,0.478,1.604c0.149,0.547,0.264,1.084,0.344,1.617
			c0.078,0.529,0.11,0.996,0.092,1.402l3.711-0.211v2.355h-12.429v-1.773c1.006-0.02,1.747-0.203,2.226-0.559
			c0.475-0.354,0.777-0.787,0.901-1.299c0.123-0.516,0.123-1.064,0-1.646c-0.124-0.584-0.282-1.133-0.479-1.646l-1.908-5.097
			L211.202,27.3c-0.39,1.115-0.734,2.136-1.033,3.066C209.868,31.295,209.583,32.211,209.32,33.113z M215.893,14.06
			c-0.83,2.33-1.561,4.383-2.187,6.156c-0.626,1.774-1.188,3.358-1.682,4.752h12.563l-3.871-10.379l-2.438-6.672h-0.105
			L215.893,14.06z"/>
		<g>
			<path fill="#212121" d="M72.907,36.643V39H60.479v-1.771c1.004-0.02,1.754-0.207,2.225-0.561
				c0.479-0.352,0.778-0.787,0.905-1.301c0.117-0.506,0.117-1.059,0-1.645c-0.126-0.58-0.281-1.131-0.479-1.646l-1.321-3.542
				c-0.199,0.028-0.407,0.055-0.615,0.073c-1.846,0.154-3.673-0.307-5.474-1.364c-1.791-1.067-3.419-1.897-4.722-1.79
				c-1.448,0.118-2.822,1.094-3.844,2.105c-0.099,0.109-0.182,0.217-0.254,0.326l-0.081,0.208h0.01
				c-0.281,0.804-0.543,1.572-0.77,2.278c-0.298,0.921-0.58,1.843-0.841,2.747c-0.145,0.424-0.271,0.803-0.371,1.139
				c-0.109,0.334-0.218,0.643-0.326,0.93c-0.099,0.281-0.208,0.561-0.317,0.822c-0.1,0.264-0.217,0.551-0.343,0.85l4.242-0.215V39
				H37.953v-1.771c0.814,0,1.474-0.162,1.99-0.488c0.506-0.334,0.941-0.797,1.294-1.393c0.352-0.604,0.678-1.318,0.967-2.148
				c0.29-0.834,0.625-1.746,0.995-2.758L54.381,0.003h1.302l8.567,21.844c-0.95,1.654-3.23,2.105-4.107,2.223l-0.009-0.028
				l-0.027-0.081l-3.501-9.372l-2.433-6.67h-0.108l-2.279,6.136c-0.833,2.332-1.556,4.383-2.181,6.164
				c-0.371,1.039-0.714,2.006-1.039,2.919l-0.019,0.064c-0.064,0.162-0.127,0.342-0.181,0.505c-0.153,0.443-0.307,0.859-0.453,1.256
				h0.01l-0.1,0.28c1.285-1.057,2.668-1.618,3.936-1.79c1.673-0.225,3.274-0.008,5.311,0.868c2,0.859,3.591,0.877,4.767,0.606
				c1.076-0.262,1.836-0.732,2.659-1.319c1.212-0.877,1.113-2.116,1.991-1.636c0.632,0.352,1.465,0.678,1.384,1.003
				c-0.172,0.696-0.507,1.808-1.657,3.108c-0.072,0.081-0.144,0.154-0.216,0.226l1.801,4.582c0.153,0.371,0.315,0.823,0.488,1.338
				c0.163,0.525,0.325,1.057,0.48,1.609c0.145,0.541,0.262,1.084,0.343,1.619c0.082,0.521,0.109,0.992,0.091,1.398L72.907,36.643z"
				/>
		</g>
	</g>
	<g>
		<g>
			<path fill="#888888" d="M25.604,57.719c0,0.295-0.004,0.551-0.011,0.762c-0.008,0.213-0.023,0.387-0.045,0.527l1.662-0.064v0.705
				h-4.149v-0.531c0.307-0.01,0.538-0.066,0.691-0.166c0.154-0.102,0.262-0.238,0.326-0.414s0.097-0.383,0.1-0.625
				c0.002-0.242,0.003-0.504,0.003-0.793v-7.041c0-0.221,0.004-0.432,0.013-0.629c0.007-0.201,0.022-0.383,0.043-0.545l-1.176,0.07
				v-0.717h7.553l0.087,2.852h-0.541c0-0.48-0.06-0.871-0.179-1.17c-0.12-0.299-0.281-0.533-0.485-0.699
				c-0.204-0.168-0.443-0.279-0.716-0.334c-0.273-0.057-0.563-0.082-0.871-0.074l-1.184,0.029c-0.302,0.012-0.532,0.068-0.688,0.17
				c-0.156,0.105-0.266,0.246-0.329,0.424c-0.064,0.178-0.097,0.385-0.1,0.625c-0.003,0.242-0.005,0.502-0.005,0.783v2.813h2.83
				l-0.119-1.406h0.724v3.424h-0.534c0-0.318-0.027-0.57-0.083-0.758c-0.055-0.188-0.143-0.334-0.262-0.438
				s-0.271-0.172-0.454-0.203c-0.183-0.031-0.404-0.047-0.664-0.047c-0.074,0-0.151,0-0.231,0c-0.079,0-0.482,0.02-1.208,0.055
				V57.719z"/>
			<path fill="#888888" d="M39.68,57.883c-0.042,0.129-0.08,0.242-0.112,0.344c-0.032,0.1-0.064,0.193-0.096,0.277
				c-0.032,0.086-0.063,0.168-0.095,0.248c-0.032,0.078-0.066,0.166-0.104,0.256l1.272-0.064v0.705h-3.045v-0.531
				c0.244,0,0.442-0.049,0.596-0.146c0.154-0.098,0.283-0.238,0.389-0.418c0.106-0.18,0.203-0.395,0.29-0.645
				c0.088-0.248,0.187-0.525,0.298-0.826l3.356-9.133h0.39l3.634,9.268c0.046,0.111,0.097,0.246,0.146,0.402
				c0.05,0.156,0.099,0.316,0.144,0.48c0.045,0.166,0.079,0.326,0.104,0.484c0.023,0.16,0.033,0.301,0.027,0.424l1.113-0.064v0.705
				h-3.729v-0.531c0.302-0.004,0.525-0.063,0.668-0.166c0.143-0.107,0.233-0.236,0.271-0.391c0.037-0.156,0.037-0.32,0-0.494
				c-0.038-0.176-0.086-0.34-0.144-0.494l-0.573-1.529l-4.237,0.098c-0.117,0.332-0.22,0.641-0.31,0.918
				C39.845,57.338,39.76,57.613,39.68,57.883z M41.651,52.168c-0.249,0.697-0.467,1.314-0.656,1.846s-0.356,1.008-0.505,1.426h3.769
				l-1.161-3.113l-0.731-2.002h-0.032L41.651,52.168z"/>
			<path fill="#888888" d="M56.187,59.775h-0.842l-0.096-3.463h0.628c0.032,0.482,0.135,0.904,0.31,1.268s0.404,0.666,0.688,0.908
				c0.284,0.244,0.613,0.43,0.989,0.555c0.376,0.123,0.779,0.186,1.209,0.186c0.317,0,0.618-0.043,0.902-0.131
				c0.283-0.088,0.533-0.217,0.748-0.389s0.384-0.387,0.508-0.641c0.125-0.254,0.187-0.545,0.187-0.873
				c0-0.396-0.088-0.738-0.262-1.025c-0.175-0.287-0.407-0.539-0.695-0.758c-0.29-0.219-0.618-0.418-0.986-0.596
				s-0.744-0.355-1.125-0.533c-0.382-0.178-0.756-0.363-1.125-0.564c-0.369-0.197-0.697-0.428-0.986-0.691
				c-0.288-0.262-0.521-0.566-0.695-0.914c-0.176-0.352-0.263-0.768-0.263-1.25c0-0.184,0.021-0.383,0.064-0.594
				c0.042-0.215,0.112-0.424,0.21-0.635c0.099-0.213,0.229-0.42,0.39-0.617c0.162-0.199,0.364-0.373,0.608-0.523
				c0.244-0.152,0.533-0.273,0.867-0.363c0.333-0.09,0.721-0.135,1.161-0.135c0.212,0,0.437,0.012,0.675,0.039
				c0.239,0.025,0.481,0.072,0.728,0.137c0.247,0.063,0.492,0.15,0.735,0.258c0.244,0.109,0.477,0.246,0.7,0.41l-0.063-0.699h0.826
				v3.566h-0.587c-0.027-0.393-0.103-0.773-0.228-1.145c-0.124-0.369-0.305-0.693-0.544-0.979c-0.238-0.283-0.533-0.512-0.882-0.686
				c-0.351-0.172-0.763-0.258-1.241-0.258c-0.339,0-0.639,0.051-0.898,0.154s-0.477,0.242-0.652,0.418
				c-0.176,0.176-0.308,0.379-0.398,0.609c-0.09,0.229-0.136,0.473-0.136,0.727c0,0.373,0.09,0.695,0.267,0.969
				c0.178,0.271,0.413,0.514,0.704,0.729c0.291,0.213,0.623,0.404,0.994,0.58c0.371,0.176,0.75,0.352,1.137,0.527
				c0.387,0.178,0.766,0.369,1.136,0.574c0.372,0.203,0.703,0.438,0.996,0.705c0.291,0.268,0.525,0.578,0.702,0.934
				c0.178,0.355,0.266,0.773,0.266,1.254c0,0.451-0.084,0.867-0.255,1.244c-0.168,0.379-0.416,0.705-0.738,0.979
				c-0.324,0.271-0.722,0.484-1.197,0.639c-0.475,0.152-1.014,0.23-1.619,0.23c-0.244,0-0.495-0.02-0.751-0.053
				c-0.257-0.033-0.511-0.086-0.763-0.154s-0.496-0.156-0.731-0.264c-0.237-0.105-0.455-0.227-0.656-0.363L56.187,59.775z"/>
			<path fill="#888888" d="M79.318,54.146l-5.828,0.07v3.502c0,0.295-0.004,0.551-0.012,0.762c-0.008,0.213-0.023,0.387-0.043,0.527
				l1.176-0.064v0.705h-3.666v-0.531c0.307-0.01,0.538-0.066,0.691-0.166c0.154-0.102,0.263-0.238,0.326-0.414
				s0.097-0.383,0.1-0.625s0.004-0.504,0.004-0.793v-7.041c0-0.221,0.003-0.432,0.011-0.629c0.008-0.201,0.023-0.383,0.044-0.545
				l-1.177,0.07v-0.717h3.666v0.533c-0.308,0.012-0.539,0.066-0.692,0.17c-0.154,0.104-0.263,0.242-0.326,0.42
				c-0.064,0.174-0.097,0.381-0.1,0.619c-0.002,0.238-0.003,0.506-0.003,0.797V53.5h5.828v-3.422c0-0.455,0.016-0.848,0.048-1.174
				l-1.177,0.07v-0.717h3.665v0.533c-0.302,0.012-0.531,0.066-0.688,0.17c-0.156,0.104-0.266,0.242-0.33,0.42
				c-0.064,0.174-0.097,0.381-0.1,0.619c-0.002,0.238-0.004,0.504-0.004,0.795v6.924c0,0.582-0.016,1.012-0.047,1.289l1.168-0.064
				v0.705h-3.665v-0.531c0.308-0.01,0.539-0.066,0.696-0.166c0.156-0.102,0.266-0.238,0.33-0.414c0.064-0.176,0.097-0.383,0.1-0.625
				s0.004-0.504,0.004-0.793V54.146z"/>
			<path fill="#888888" d="M91.277,50.078c0-0.221,0.004-0.432,0.012-0.629c0.007-0.201,0.022-0.383,0.043-0.545l-1.176,0.07v-0.717
				h3.666v0.533c-0.308,0.012-0.538,0.066-0.692,0.17c-0.153,0.104-0.262,0.242-0.326,0.42c-0.063,0.174-0.096,0.381-0.099,0.619
				S92.7,50.504,92.7,50.795v6.924c0,0.295-0.004,0.551-0.012,0.762c-0.008,0.213-0.022,0.387-0.043,0.527l1.177-0.064v0.705h-3.666
				v-0.531c0.307-0.01,0.538-0.066,0.691-0.166c0.154-0.102,0.263-0.238,0.327-0.414c0.064-0.176,0.096-0.383,0.1-0.625
				c0.002-0.242,0.003-0.504,0.003-0.793V50.078z"/>
			<path fill="#888888" d="M101.973,53.955c0-0.457,0.05-0.92,0.152-1.393c0.1-0.471,0.254-0.926,0.46-1.367
				c0.207-0.443,0.467-0.857,0.779-1.246c0.313-0.385,0.678-0.725,1.097-1.016c0.419-0.291,0.893-0.52,1.424-0.688
				c0.53-0.166,1.115-0.25,1.757-0.25c0.663,0,1.266,0.086,1.809,0.256c0.543,0.17,1.03,0.398,1.459,0.688
				c0.429,0.285,0.802,0.625,1.117,1.016c0.316,0.389,0.578,0.805,0.787,1.248c0.21,0.441,0.366,0.898,0.47,1.369
				c0.104,0.473,0.155,0.932,0.155,1.383c0,0.449-0.052,0.908-0.155,1.377c-0.104,0.471-0.257,0.924-0.461,1.367
				c-0.204,0.441-0.462,0.857-0.775,1.246c-0.313,0.391-0.679,0.73-1.101,1.021c-0.422,0.291-0.896,0.521-1.423,0.691
				c-0.528,0.17-1.112,0.254-1.754,0.254c-0.688,0-1.31-0.082-1.864-0.248c-0.554-0.162-1.045-0.387-1.474-0.67
				c-0.43-0.283-0.799-0.617-1.11-1c-0.309-0.383-0.564-0.797-0.763-1.236c-0.199-0.439-0.346-0.898-0.44-1.379
				C102.021,54.9,101.973,54.426,101.973,53.955z M103.571,53.656c0,0.402,0.037,0.82,0.111,1.252
				c0.074,0.432,0.187,0.854,0.338,1.268c0.151,0.414,0.341,0.807,0.573,1.18c0.23,0.375,0.503,0.701,0.819,0.979
				c0.315,0.279,0.67,0.498,1.065,0.664c0.395,0.162,0.836,0.246,1.324,0.246c0.445,0,0.853-0.066,1.225-0.201
				c0.371-0.137,0.704-0.322,1.001-0.557c0.297-0.238,0.557-0.514,0.779-0.836c0.223-0.322,0.408-0.666,0.556-1.035
				c0.149-0.365,0.262-0.76,0.338-1.178c0.077-0.42,0.115-0.813,0.115-1.178c0-0.393-0.043-0.826-0.127-1.305
				c-0.084-0.477-0.208-0.922-0.373-1.338s-0.365-0.807-0.604-1.168c-0.238-0.365-0.514-0.68-0.827-0.947
				c-0.312-0.268-0.661-0.479-1.045-0.631c-0.385-0.154-0.801-0.23-1.252-0.23c-0.667,0-1.253,0.146-1.757,0.445
				c-0.503,0.297-0.921,0.684-1.256,1.16c-0.334,0.477-0.584,1.014-0.751,1.609C103.655,52.453,103.571,53.053,103.571,53.656z"/>
			<path fill="#888888" d="M131.116,59.912h-0.787l-7.069-9.494h-0.024l0.057,6.975c0,0.281-0.002,0.557-0.004,0.822
				c-0.003,0.268-0.012,0.533-0.028,0.793l1.176-0.064v0.705h-2.981v-0.531c0.247,0,0.445-0.045,0.588-0.131
				c0.143-0.088,0.251-0.195,0.322-0.322s0.116-0.266,0.136-0.414c0.019-0.148,0.028-0.287,0.028-0.414l0.016-8.932l-1.09,0.07
				v-0.717h1.939l6.936,9.27h0.016l0.016-7.449c0-0.455,0.017-0.848,0.047-1.174l-1.168,0.07v-0.717h2.997v0.533
				c-0.307,0.012-0.538,0.066-0.688,0.17c-0.152,0.104-0.258,0.242-0.317,0.42c-0.062,0.174-0.09,0.379-0.088,0.617
				c0.003,0.24,0.004,0.504,0.004,0.795L131.116,59.912z"/>
			<path fill="#888888" d="M152.132,59.775h-0.842l-0.097-3.463h0.629c0.031,0.482,0.135,0.904,0.31,1.268
				c0.176,0.363,0.403,0.666,0.688,0.908c0.283,0.244,0.613,0.43,0.989,0.555c0.377,0.123,0.779,0.186,1.209,0.186
				c0.317,0,0.619-0.043,0.901-0.131c0.283-0.088,0.534-0.217,0.749-0.389c0.213-0.172,0.383-0.387,0.509-0.641
				c0.122-0.254,0.186-0.545,0.186-0.873c0-0.396-0.087-0.738-0.261-1.025c-0.177-0.287-0.408-0.539-0.696-0.758
				c-0.289-0.219-0.619-0.418-0.987-0.596c-0.369-0.178-0.743-0.355-1.125-0.533c-0.381-0.178-0.756-0.363-1.124-0.564
				c-0.368-0.197-0.698-0.428-0.985-0.691c-0.29-0.262-0.522-0.566-0.697-0.914c-0.174-0.352-0.262-0.768-0.262-1.25
				c0-0.184,0.021-0.383,0.064-0.594c0.041-0.215,0.112-0.424,0.211-0.635c0.097-0.213,0.226-0.42,0.388-0.617
				c0.163-0.199,0.364-0.373,0.608-0.523c0.245-0.152,0.532-0.273,0.868-0.363c0.333-0.09,0.72-0.135,1.159-0.135
				c0.212,0,0.438,0.012,0.678,0.039c0.237,0.025,0.48,0.072,0.726,0.137c0.247,0.063,0.493,0.15,0.737,0.258
				c0.243,0.109,0.477,0.246,0.698,0.41l-0.064-0.699h0.829v3.566h-0.591c-0.025-0.393-0.102-0.773-0.226-1.145
				c-0.125-0.369-0.306-0.693-0.544-0.979c-0.238-0.283-0.533-0.512-0.883-0.686c-0.35-0.172-0.763-0.258-1.24-0.258
				c-0.339,0-0.639,0.051-0.898,0.154s-0.478,0.242-0.652,0.418s-0.308,0.379-0.396,0.609c-0.09,0.229-0.135,0.473-0.135,0.727
				c0,0.373,0.087,0.695,0.266,0.969c0.177,0.271,0.413,0.514,0.704,0.729c0.292,0.213,0.622,0.404,0.992,0.58
				c0.372,0.176,0.751,0.352,1.138,0.527c0.388,0.178,0.767,0.369,1.138,0.574c0.371,0.203,0.701,0.438,0.993,0.705
				c0.291,0.268,0.524,0.578,0.703,0.934c0.178,0.355,0.267,0.773,0.267,1.254c0,0.451-0.084,0.867-0.254,1.244
				c-0.17,0.379-0.416,0.705-0.74,0.979c-0.323,0.271-0.723,0.484-1.196,0.639c-0.475,0.152-1.015,0.23-1.617,0.23
				c-0.245,0-0.496-0.02-0.751-0.053c-0.259-0.033-0.513-0.086-0.764-0.154c-0.254-0.068-0.497-0.156-0.731-0.264
				c-0.237-0.105-0.456-0.227-0.656-0.363L152.132,59.775z"/>
			<path fill="#888888" d="M175.262,54.146l-5.828,0.07v3.502c0,0.295-0.004,0.551-0.012,0.762
				c-0.008,0.213-0.022,0.387-0.043,0.527l1.178-0.064v0.705h-3.666v-0.531c0.308-0.01,0.538-0.066,0.692-0.166
				c0.153-0.102,0.262-0.238,0.325-0.414s0.097-0.383,0.1-0.625c0.002-0.242,0.003-0.504,0.003-0.793v-7.041
				c0-0.221,0.005-0.432,0.013-0.629c0.007-0.201,0.022-0.383,0.044-0.545l-1.177,0.07v-0.717h3.666v0.533
				c-0.309,0.012-0.537,0.066-0.693,0.17c-0.154,0.104-0.262,0.242-0.325,0.42c-0.063,0.174-0.098,0.381-0.099,0.619
				c-0.005,0.238-0.006,0.506-0.006,0.797V53.5h5.828v-3.422c0-0.455,0.017-0.848,0.048-1.174l-1.175,0.07v-0.717h3.665v0.533
				c-0.303,0.012-0.533,0.066-0.688,0.17c-0.156,0.104-0.266,0.242-0.331,0.42c-0.063,0.174-0.096,0.381-0.099,0.619
				s-0.004,0.504-0.004,0.795v6.924c0,0.582-0.015,1.012-0.047,1.289l1.169-0.064v0.705h-3.665v-0.531
				c0.307-0.01,0.539-0.066,0.695-0.166c0.155-0.102,0.266-0.238,0.329-0.414s0.096-0.383,0.1-0.625
				c0.001-0.242,0.003-0.504,0.003-0.793V54.146z"/>
			<path fill="#888888" d="M185.952,53.955c0-0.457,0.05-0.92,0.15-1.393c0.1-0.471,0.254-0.926,0.46-1.367
				c0.207-0.443,0.466-0.857,0.778-1.246c0.315-0.385,0.68-0.725,1.1-1.016c0.419-0.291,0.893-0.52,1.421-0.688
				c0.532-0.166,1.117-0.25,1.759-0.25c0.663,0,1.265,0.086,1.808,0.256c0.542,0.17,1.03,0.398,1.46,0.688
				c0.43,0.285,0.801,0.625,1.116,1.016c0.315,0.389,0.577,0.805,0.789,1.248c0.209,0.441,0.365,0.898,0.468,1.369
				c0.104,0.473,0.154,0.932,0.154,1.383c0,0.449-0.05,0.908-0.154,1.377c-0.103,0.471-0.258,0.924-0.462,1.367
				c-0.204,0.441-0.461,0.857-0.773,1.246c-0.315,0.391-0.68,0.73-1.102,1.021c-0.421,0.291-0.896,0.521-1.422,0.691
				c-0.53,0.17-1.113,0.254-1.756,0.254c-0.689,0-1.31-0.082-1.864-0.248c-0.554-0.162-1.046-0.387-1.474-0.67
				c-0.431-0.283-0.801-0.617-1.11-1c-0.311-0.383-0.563-0.797-0.763-1.236s-0.345-0.898-0.44-1.379
				C185.999,54.9,185.952,54.426,185.952,53.955z M187.549,53.656c0,0.402,0.038,0.82,0.112,1.252s0.186,0.854,0.338,1.268
				c0.149,0.414,0.34,0.807,0.572,1.18c0.229,0.375,0.503,0.701,0.817,0.979c0.316,0.279,0.671,0.498,1.067,0.664
				c0.393,0.162,0.836,0.246,1.322,0.246c0.446,0,0.854-0.066,1.225-0.201c0.371-0.137,0.704-0.322,1.002-0.557
				c0.298-0.238,0.557-0.514,0.778-0.836c0.225-0.322,0.409-0.666,0.558-1.035c0.148-0.365,0.26-0.76,0.337-1.178
				c0.078-0.42,0.116-0.813,0.116-1.178c0-0.393-0.043-0.826-0.128-1.305c-0.084-0.477-0.209-0.922-0.372-1.338
				c-0.165-0.416-0.366-0.807-0.606-1.168c-0.237-0.365-0.513-0.68-0.827-0.947c-0.312-0.268-0.66-0.479-1.043-0.631
				c-0.387-0.154-0.803-0.23-1.254-0.23c-0.668,0-1.253,0.146-1.756,0.445c-0.504,0.297-0.923,0.684-1.257,1.16
				s-0.584,1.014-0.752,1.609C187.633,52.453,187.549,53.053,187.549,53.656z"/>
			<path fill="#888888" d="M208.524,55.369c-0.052,0-0.136,0-0.251,0c-0.112,0-0.224-0.004-0.329-0.01v2.357
				c0,0.297-0.005,0.553-0.011,0.764c-0.009,0.211-0.024,0.387-0.044,0.527l1.502-0.08v0.721H205.4v-0.531
				c0.308-0.01,0.538-0.066,0.692-0.166c0.154-0.102,0.263-0.238,0.325-0.414c0.063-0.176,0.096-0.383,0.1-0.623
				c0.002-0.242,0.004-0.506,0.004-0.793v-7.035c0-0.221,0.003-0.434,0.012-0.631c0.007-0.201,0.022-0.383,0.043-0.545l-1.176,0.072
				v-0.725c0.572-0.01,1.16-0.018,1.767-0.02c0.603-0.002,1.226-0.004,1.867-0.004c1.578,0,2.78,0.266,3.603,0.795
				c0.879,0.578,1.318,1.422,1.318,2.533c0,0.227-0.026,0.48-0.075,0.756c-0.051,0.275-0.151,0.559-0.307,0.854
				c-0.153,0.293-0.365,0.574-0.63,0.842c-0.268,0.268-0.606,0.5-1.011,0.699c-0.406,0.199-0.891,0.357-1.452,0.477
				C209.92,55.309,209.268,55.369,208.524,55.369z M207.944,54.686c0.202,0.027,0.377,0.041,0.529,0.047
				c0.15,0.006,0.327,0.008,0.528,0.008c0.461,0,0.898-0.068,1.308-0.205c0.412-0.137,0.769-0.336,1.073-0.6
				c0.305-0.262,0.547-0.582,0.724-0.955c0.177-0.377,0.266-0.801,0.266-1.277c0-0.512-0.081-0.949-0.245-1.309
				c-0.164-0.361-0.395-0.654-0.693-0.877c-0.295-0.225-0.651-0.387-1.065-0.488c-0.411-0.102-0.868-0.15-1.366-0.15
				c-0.292,0-0.512,0.045-0.656,0.139c-0.146,0.092-0.249,0.223-0.311,0.393c-0.061,0.168-0.091,0.371-0.091,0.605
				c0,0.236,0,0.5,0,0.789V54.686z"/>
		</g>
		<g>
			<rect x="0.001" y="53.252" fill="#888888" width="12.136" height="1.355"/>
			<rect x="224.879" y="53.252" fill="#888888" width="12.136" height="1.355"/>
		</g>
	</g>
</g>
</svg>
