<?xml version="1.0" encoding="utf-8"?>
<!-- Generator: Adobe Illustrator 16.0.0, SVG Export Plug-In . SVG Version: 6.00 Build 0)  -->
<!DOCTYPE svg PUBLIC "-//W3C//DTD SVG 1.1//EN" "http://www.w3.org/Graphics/SVG/1.1/DTD/svg11.dtd">
<svg version="1.1" id="Layer_1" xmlns="http://www.w3.org/2000/svg" xmlns:xlink="http://www.w3.org/1999/xlink" x="0px" y="0px"
	 width="263px" height="67px" viewBox="0 0 263 67" enable-background="new 0 0 263 67" xml:space="preserve">
<g>
	<g>
		<path fill="#212121" d="M35.736,44.275h-2.912L6.681,8.28H6.593l0.206,26.442c0,1.065-0.005,2.105-0.015,3.12
			c-0.01,1.016-0.044,2.017-0.103,3l4.353-0.241v2.682H0.005v-2.019c0.922,0,1.647-0.165,2.176-0.497s0.926-0.739,1.191-1.222
			c0.265-0.483,0.431-1.007,0.5-1.569c0.068-0.564,0.103-1.086,0.103-1.568l0.059-33.88L0.005,2.798V0.087h7.175l25.644,35.152
			h0.059l0.059-28.25c0-1.727,0.059-3.215,0.176-4.462l-4.323,0.271V0.087h11.087v2.018c-1.137,0.042-1.985,0.257-2.544,0.649
			c-0.559,0.391-0.951,0.919-1.176,1.583C35.937,5,35.829,5.784,35.839,6.688c0.01,0.904,0.015,1.91,0.015,3.014L35.736,44.275z"/>
		<path fill="#212121" d="M118.196,24.019c-0.02,2.693-0.309,5.26-0.868,7.702c-0.559,2.442-1.47,4.592-2.734,6.453
			c-1.265,1.857-2.926,3.34-4.985,4.445c-2.059,1.104-4.598,1.657-7.617,1.657c-3.216,0-5.911-0.432-8.087-1.295
			c-2.176-0.864-3.926-2.195-5.249-3.994c-1.324-1.801-2.27-4.086-2.838-6.859c-0.569-2.773-0.853-6.069-0.853-9.888V9.699
			c0-0.542,0.004-1.146,0.015-1.809c0.01-0.663,0.03-1.326,0.059-1.988c0.029-0.664,0.054-1.291,0.073-1.884
			c0.02-0.594,0.049-1.091,0.088-1.494l-4.323,0.181V0.084h13.528v2.018c-1.02,0-1.809,0.177-2.367,0.528s-0.971,0.779-1.235,1.281
			s-0.422,1.034-0.47,1.599c-0.049,0.563-0.074,1.054-0.074,1.476v15.556c0,1.528,0.059,3.041,0.176,4.537
			c0.118,1.498,0.338,2.919,0.662,4.267c0.324,1.346,0.775,2.593,1.353,3.738c0.578,1.146,1.328,2.14,2.25,2.983
			c0.921,0.846,2.039,1.504,3.353,1.976c1.313,0.473,2.871,0.708,4.675,0.708c2.177,0,4.044-0.402,5.603-1.204
			c1.559-0.805,2.842-1.935,3.853-3.393c1.01-1.457,1.754-3.192,2.235-5.201c0.48-2.009,0.74-4.22,0.779-6.632l0.235-17.335
			c0-1.729,0.059-3.215,0.176-4.462l-4.323,0.271V0.084h11.205v2.018c-1.137,0.042-1.995,0.257-2.573,0.649s-0.985,0.92-1.221,1.583
			c-0.235,0.664-0.357,1.448-0.368,2.352c-0.01,0.904-0.015,1.91-0.015,3.014L118.196,24.019z"/>
		<path fill="#212121" d="M159.191,13.076c-0.04-1.831-0.177-3.427-0.412-4.785c-0.235-1.359-0.646-2.486-1.234-3.383
			c-0.588-0.896-1.383-1.566-2.383-2.009c-0.999-0.442-2.273-0.664-3.822-0.664l-5.089,0.03l-0.088,33.698
			c0,2.217-0.059,3.849-0.177,4.896l5-0.242v2.688h-14.145v-2.023c1.117-0.041,1.96-0.262,2.528-0.665
			c0.569-0.402,0.971-0.941,1.206-1.616s0.353-1.465,0.353-2.373c0-0.907,0-1.883,0-2.931l0.089-31.372l-6.235,0.031
			c-1.273,0-2.348,0.217-3.22,0.65s-1.583,1.091-2.132,1.977c-0.549,0.887-0.946,2-1.191,3.338
			c-0.245,1.339-0.367,2.924-0.367,4.755h-2.235L125.99,0h35.113l0.354,13.076H159.191z"/>
		<path fill="#212121" d="M170.337,6.924c0-0.848,0.015-1.649,0.044-2.405c0.03-0.756,0.084-1.446,0.162-2.073l-4.352,0.272V0
			h13.557v2.023c-1.138,0.042-1.99,0.258-2.559,0.65c-0.568,0.395-0.971,0.924-1.206,1.589c-0.235,0.665-0.358,1.451-0.368,2.359
			c-0.01,0.909-0.015,1.915-0.015,3.024v26.313c0,1.129-0.015,2.098-0.044,2.903c-0.029,0.809-0.083,1.474-0.162,1.997l4.354-0.242
			v2.688h-13.557v-2.022c1.137-0.042,1.989-0.252,2.558-0.636c0.569-0.384,0.971-0.908,1.206-1.573
			c0.235-0.664,0.357-1.456,0.367-2.375c0.01-0.917,0.015-1.921,0.015-3.008V6.924z"/>
		<path fill="#212121" d="M207.127,2.519c-2.138,0-4.142,0.458-6.015,1.373c-1.872,0.914-3.504,2.211-4.896,3.892
			c-1.393,1.681-2.49,3.72-3.294,6.118c-0.805,2.399-1.206,5.072-1.206,8.021c0,1.907,0.19,3.702,0.574,5.382
			c0.382,1.681,0.926,3.234,1.631,4.66c0.706,1.426,1.549,2.704,2.529,3.833c0.98,1.131,2.068,2.089,3.265,2.875
			c1.195,0.786,2.479,1.392,3.853,1.814c1.372,0.423,2.804,0.633,4.293,0.633c1.314,0,2.623-0.147,3.926-0.442
			c1.305-0.295,2.559-0.737,3.766-1.327c1.205-0.591,2.337-1.315,3.396-2.182c1.059-0.865,1.999-1.858,2.822-2.979l1.559,1.268
			c-1.293,1.789-2.681,3.254-4.16,4.394c-1.481,1.141-2.971,2.042-4.471,2.699c-1.5,0.658-2.971,1.11-4.411,1.357
			c-1.44,0.246-2.779,0.367-4.014,0.367c-3.02,0-5.784-0.556-8.294-1.666c-2.51-1.109-4.666-2.629-6.47-4.556
			c-1.804-1.928-3.206-4.191-4.205-6.797c-1-2.605-1.499-5.412-1.499-8.42c0-1.888,0.19-3.763,0.573-5.632
			c0.382-1.868,0.96-3.642,1.734-5.322c0.774-1.681,1.74-3.244,2.896-4.689c1.156-1.444,2.51-2.699,4.059-3.761
			s3.293-1.891,5.234-2.491s4.078-0.9,6.411-0.9c2.274,0,4.401,0.306,6.382,0.914c1.979,0.609,3.901,1.534,5.764,2.772l-0.295-3.244
			h3.265v14.008h-2.176c-0.215-1.887-0.661-3.572-1.338-5.057c-0.677-1.484-1.549-2.738-2.617-3.761
			c-1.069-1.021-2.328-1.802-3.779-2.343C210.47,2.791,208.872,2.519,207.127,2.519z"/>
		<path fill="#212121" d="M232.271,36.769c-0.156,0.471-0.294,0.894-0.411,1.267c-0.119,0.374-0.236,0.717-0.354,1.032
			c-0.118,0.314-0.235,0.619-0.354,0.914c-0.117,0.295-0.245,0.609-0.382,0.942l4.706-0.235v2.617h-11.264v-1.97
			c0.901,0,1.637-0.181,2.205-0.544c0.568-0.364,1.049-0.878,1.441-1.545c0.392-0.667,0.75-1.461,1.073-2.383
			c0.324-0.922,0.691-1.941,1.103-3.06L242.446,0h1.44l13.439,34.305c0.176,0.412,0.357,0.908,0.544,1.486s0.363,1.172,0.53,1.779
			c0.166,0.608,0.294,1.206,0.382,1.796c0.088,0.588,0.122,1.106,0.103,1.558l4.117-0.235v2.617H249.21v-1.97
			c1.117-0.02,1.94-0.226,2.471-0.619c0.528-0.393,0.862-0.875,0.999-1.443c0.138-0.57,0.138-1.18,0-1.828
			c-0.137-0.648-0.313-1.258-0.529-1.827l-2.117-5.66l-15.675,0.354c-0.432,1.238-0.813,2.373-1.146,3.404
			C232.878,34.748,232.564,35.766,232.271,36.769z M239.563,15.611c-0.921,2.587-1.73,4.867-2.426,6.836
			c-0.696,1.97-1.318,3.729-1.867,5.276h13.939l-4.294-11.524l-2.705-7.409h-0.118L239.563,15.611z"/>
		<g>
			<path fill="#212121" d="M80.905,40.685v2.619H67.113v-1.967c1.114-0.021,1.947-0.23,2.469-0.623
				c0.532-0.391,0.863-0.873,1.004-1.444c0.13-0.563,0.13-1.174,0-1.826c-0.141-0.643-0.312-1.255-0.532-1.827l-1.466-3.934
				c-0.221,0.03-0.452,0.061-0.683,0.081c-2.048,0.17-4.076-0.341-6.073-1.515c-1.988-1.184-3.794-2.107-5.24-1.987
				c-1.606,0.131-3.132,1.215-4.266,2.338c-0.11,0.121-0.201,0.241-0.281,0.362l-0.09,0.231h0.01
				c-0.312,0.893-0.603,1.745-0.854,2.529c-0.332,1.023-0.643,2.047-0.934,3.05c-0.161,0.472-0.301,0.893-0.412,1.265
				c-0.121,0.371-0.241,0.712-0.361,1.033c-0.11,0.312-0.231,0.623-0.352,0.914c-0.11,0.291-0.241,0.611-0.381,0.942l4.708-0.24
				v2.619H42.119v-1.967c0.903,0,1.636-0.181,2.208-0.542c0.562-0.372,1.044-0.884,1.436-1.546c0.391-0.672,0.752-1.465,1.073-2.388
				c0.322-0.924,0.693-1.937,1.104-3.061L60.348,0.003h1.446l9.505,24.254c-1.054,1.836-3.583,2.338-4.557,2.469l-0.01-0.03
				l-0.03-0.09l-3.885-10.406l-2.7-7.406h-0.121l-2.529,6.813c-0.924,2.589-1.727,4.867-2.419,6.844
				c-0.412,1.154-0.793,2.228-1.154,3.241l-0.021,0.071c-0.07,0.18-0.141,0.381-0.201,0.562c-0.17,0.492-0.341,0.954-0.502,1.396
				h0.01l-0.11,0.311c1.426-1.174,2.961-1.796,4.367-1.987c1.857-0.251,3.634-0.01,5.893,0.963c2.218,0.954,3.985,0.974,5.29,0.673
				c1.194-0.291,2.037-0.813,2.951-1.465c1.344-0.974,1.234-2.349,2.208-1.817c0.702,0.391,1.625,0.753,1.535,1.114
				c-0.19,0.772-0.563,2.007-1.837,3.452c-0.08,0.09-0.16,0.17-0.24,0.251l1.997,5.087c0.17,0.412,0.351,0.914,0.542,1.485
				c0.181,0.582,0.361,1.175,0.532,1.786c0.161,0.603,0.292,1.204,0.381,1.797c0.09,0.582,0.121,1.104,0.101,1.555L80.905,40.685z"
				/>
		</g>
	</g>
	<g>
		<g>
			<path fill="#888888" d="M28.417,64.086c0,0.33-0.004,0.612-0.013,0.848c-0.009,0.236-0.025,0.431-0.049,0.584l1.844-0.07v0.783
				h-4.604v-0.59c0.341-0.012,0.597-0.074,0.767-0.186c0.17-0.112,0.291-0.265,0.362-0.459c0.07-0.195,0.107-0.426,0.11-0.693
				c0.003-0.269,0.004-0.561,0.004-0.88v-7.817c0-0.246,0.005-0.481,0.014-0.702s0.025-0.423,0.048-0.604l-1.305,0.078v-0.794h8.381
				l0.097,3.168h-0.6c0-0.535-0.066-0.97-0.199-1.302s-0.312-0.591-0.538-0.776c-0.227-0.186-0.491-0.309-0.794-0.37
				c-0.303-0.062-0.625-0.09-0.966-0.084l-1.314,0.035c-0.335,0.012-0.59,0.075-0.763,0.189c-0.174,0.115-0.296,0.271-0.366,0.468
				c-0.071,0.197-0.107,0.43-0.11,0.696c-0.003,0.268-0.004,0.557-0.004,0.869v3.122h3.141l-0.132-1.561h0.803v3.801h-0.591
				c0-0.354-0.031-0.634-0.093-0.842c-0.062-0.209-0.159-0.371-0.291-0.485s-0.3-0.19-0.503-0.226
				c-0.203-0.035-0.449-0.053-0.737-0.053c-0.082,0-0.167,0-0.256,0c-0.088,0-0.535,0.021-1.341,0.063V64.086z"/>
			<path fill="#888888" d="M44.035,64.27c-0.047,0.143-0.088,0.269-0.124,0.381c-0.035,0.112-0.07,0.216-0.105,0.31
				c-0.036,0.095-0.071,0.186-0.106,0.274c-0.035,0.088-0.074,0.184-0.115,0.283l1.411-0.07v0.783h-3.379v-0.59
				c0.271,0,0.491-0.055,0.662-0.163c0.17-0.109,0.314-0.264,0.432-0.464s0.225-0.439,0.322-0.715
				c0.097-0.276,0.208-0.583,0.331-0.918l3.724-10.141h0.432l4.032,10.291c0.053,0.123,0.107,0.272,0.163,0.445
				c0.056,0.174,0.109,0.352,0.159,0.534c0.05,0.183,0.088,0.362,0.115,0.538c0.026,0.177,0.037,0.333,0.031,0.469l1.235-0.07v0.783
				h-4.138v-0.59c0.335-0.006,0.583-0.068,0.741-0.186c0.159-0.118,0.259-0.263,0.3-0.434c0.041-0.171,0.041-0.354,0-0.549
				c-0.042-0.194-0.095-0.376-0.159-0.548l-0.635-1.698l-4.702,0.107c-0.129,0.371-0.244,0.712-0.344,1.021
				C44.217,63.664,44.123,63.969,44.035,64.27z M46.223,57.923c-0.276,0.776-0.519,1.46-0.728,2.051
				c-0.209,0.591-0.396,1.118-0.561,1.583h4.182l-1.288-3.458l-0.812-2.223h-0.035L46.223,57.923z"/>
			<path fill="#888888" d="M62.352,66.372h-0.936l-0.105-3.846h0.697c0.036,0.535,0.15,1.005,0.344,1.407
				c0.194,0.403,0.448,0.739,0.763,1.01c0.315,0.271,0.681,0.476,1.099,0.613c0.417,0.139,0.865,0.208,1.341,0.208
				c0.353,0,0.687-0.049,1.001-0.146c0.315-0.097,0.591-0.241,0.83-0.432c0.238-0.191,0.426-0.428,0.564-0.71
				s0.207-0.605,0.207-0.97c0-0.441-0.097-0.821-0.291-1.139c-0.194-0.318-0.451-0.599-0.771-0.842
				c-0.321-0.244-0.686-0.465-1.094-0.662c-0.409-0.196-0.825-0.394-1.249-0.591c-0.423-0.197-0.839-0.405-1.248-0.626
				c-0.409-0.221-0.773-0.477-1.094-0.768c-0.32-0.291-0.578-0.63-0.772-1.018c-0.194-0.389-0.291-0.851-0.291-1.386
				c0-0.206,0.023-0.426,0.07-0.661c0.047-0.235,0.125-0.47,0.234-0.705c0.109-0.235,0.253-0.464,0.432-0.685
				s0.404-0.414,0.675-0.582c0.271-0.167,0.591-0.302,0.962-0.401c0.37-0.101,0.799-0.149,1.288-0.149
				c0.235,0,0.485,0.014,0.75,0.043s0.534,0.081,0.807,0.151c0.274,0.07,0.546,0.166,0.816,0.286s0.529,0.272,0.776,0.455
				l-0.07-0.776h0.917v3.959h-0.652c-0.029-0.436-0.114-0.858-0.252-1.269c-0.138-0.409-0.339-0.771-0.604-1.087
				c-0.265-0.316-0.591-0.569-0.979-0.761c-0.388-0.192-0.847-0.288-1.376-0.288c-0.377,0-0.709,0.058-0.997,0.172
				c-0.288,0.116-0.529,0.271-0.723,0.465c-0.195,0.194-0.342,0.42-0.442,0.676c-0.1,0.256-0.15,0.525-0.15,0.808
				c0,0.413,0.099,0.771,0.295,1.074c0.198,0.304,0.458,0.572,0.781,0.809s0.691,0.45,1.103,0.645
				c0.412,0.195,0.832,0.391,1.261,0.587c0.43,0.197,0.85,0.409,1.262,0.636s0.779,0.487,1.103,0.785
				c0.323,0.297,0.583,0.642,0.78,1.035c0.197,0.395,0.295,0.858,0.295,1.394c0,0.5-0.094,0.961-0.282,1.381
				c-0.188,0.421-0.461,0.782-0.82,1.085c-0.359,0.303-0.802,0.539-1.328,0.71c-0.526,0.17-1.125,0.256-1.795,0.256
				c-0.271,0-0.549-0.02-0.834-0.058s-0.567-0.095-0.847-0.171c-0.279-0.077-0.55-0.175-0.812-0.292
				c-0.262-0.118-0.504-0.253-0.728-0.406L62.352,66.372z"/>
			<path fill="#888888" d="M88.018,60.12l-6.467,0.078v3.888c0,0.33-0.004,0.612-0.013,0.848c-0.009,0.236-0.025,0.431-0.048,0.584
				l1.305-0.07v0.783h-4.067v-0.59c0.341-0.012,0.597-0.074,0.767-0.186c0.171-0.112,0.292-0.265,0.362-0.459
				c0.07-0.195,0.107-0.426,0.11-0.693c0.003-0.269,0.004-0.561,0.004-0.88v-7.817c0-0.246,0.004-0.481,0.013-0.702
				s0.025-0.423,0.048-0.604l-1.306,0.078v-0.794h4.067v0.592c-0.341,0.012-0.597,0.075-0.768,0.19
				c-0.17,0.113-0.291,0.269-0.361,0.463c-0.071,0.194-0.107,0.425-0.11,0.689s-0.004,0.56-0.004,0.884v3.003h6.467v-3.799
				c0-0.506,0.018-0.942,0.053-1.307l-1.306,0.078v-0.794h4.067v0.592c-0.335,0.012-0.589,0.075-0.763,0.19
				c-0.173,0.113-0.295,0.269-0.366,0.463c-0.07,0.194-0.107,0.425-0.11,0.689s-0.005,0.559-0.005,0.883v7.687
				c0,0.646-0.018,1.124-0.053,1.431l1.297-0.07v0.783h-4.067v-0.59c0.341-0.012,0.598-0.074,0.772-0.186
				c0.173-0.112,0.295-0.265,0.366-0.459c0.071-0.195,0.108-0.426,0.111-0.693c0.003-0.269,0.004-0.561,0.004-0.88V60.12z"/>
			<path fill="#888888" d="M101.289,55.605c0-0.246,0.004-0.481,0.013-0.702s0.025-0.423,0.048-0.604l-1.306,0.078v-0.794h4.067
				v0.592c-0.341,0.012-0.597,0.075-0.767,0.19c-0.171,0.113-0.292,0.269-0.362,0.463c-0.071,0.194-0.107,0.425-0.11,0.689
				s-0.004,0.559-0.004,0.883v7.687c0,0.329-0.004,0.611-0.013,0.847c-0.009,0.236-0.025,0.431-0.048,0.584l1.305-0.07v0.783h-4.067
				v-0.59c0.341-0.012,0.597-0.074,0.767-0.186c0.171-0.112,0.292-0.265,0.362-0.459c0.071-0.195,0.107-0.426,0.11-0.693
				c0.003-0.269,0.004-0.561,0.004-0.88V55.605z"/>
			<path fill="#888888" d="M113.157,59.908c0-0.506,0.056-1.021,0.167-1.545s0.282-1.029,0.511-1.521
				c0.229-0.491,0.518-0.95,0.865-1.38c0.347-0.43,0.752-0.806,1.217-1.129s0.991-0.578,1.579-0.764
				c0.588-0.185,1.238-0.277,1.95-0.277c0.735,0,1.404,0.095,2.007,0.282c0.603,0.188,1.143,0.442,1.619,0.763
				c0.477,0.32,0.89,0.696,1.24,1.129s0.641,0.894,0.873,1.385c0.232,0.491,0.406,0.998,0.521,1.521
				c0.115,0.523,0.172,1.035,0.172,1.535s-0.057,1.009-0.172,1.529c-0.115,0.521-0.285,1.026-0.512,1.518
				c-0.226,0.49-0.513,0.952-0.86,1.385c-0.347,0.432-0.754,0.81-1.222,1.133c-0.468,0.323-0.995,0.58-1.58,0.768
				c-0.585,0.188-1.233,0.282-1.945,0.282c-0.765,0-1.454-0.092-2.069-0.274c-0.615-0.182-1.16-0.43-1.636-0.744
				c-0.477-0.314-0.887-0.686-1.231-1.111c-0.344-0.427-0.626-0.884-0.847-1.372c-0.22-0.488-0.384-0.998-0.489-1.53
				C113.209,60.959,113.157,60.432,113.157,59.908z M114.93,59.577c0,0.446,0.041,0.91,0.124,1.39s0.208,0.948,0.375,1.408
				c0.167,0.459,0.379,0.896,0.635,1.31c0.256,0.416,0.559,0.777,0.909,1.086c0.35,0.31,0.744,0.555,1.182,0.737
				c0.438,0.182,0.928,0.274,1.469,0.274c0.494,0,0.946-0.075,1.358-0.226c0.412-0.15,0.782-0.356,1.111-0.617
				c0.33-0.263,0.618-0.571,0.865-0.928c0.247-0.356,0.453-0.738,0.618-1.148c0.165-0.407,0.29-0.845,0.375-1.309
				c0.085-0.466,0.127-0.901,0.127-1.308c0-0.435-0.047-0.917-0.141-1.447c-0.094-0.529-0.232-1.025-0.414-1.486
				c-0.183-0.463-0.406-0.896-0.67-1.298c-0.265-0.403-0.571-0.754-0.918-1.051c-0.347-0.298-0.733-0.531-1.16-0.701
				c-0.426-0.171-0.889-0.257-1.389-0.257c-0.741,0-1.391,0.164-1.95,0.495c-0.559,0.329-1.023,0.759-1.394,1.288
				c-0.371,0.529-0.649,1.125-0.834,1.788C115.022,58.24,114.93,58.906,114.93,59.577z"/>
			<path fill="#888888" d="M145.493,66.522h-0.873l-7.843-10.54h-0.028l0.063,7.742c0,0.313-0.002,0.617-0.005,0.914
				s-0.013,0.591-0.03,0.879l1.305-0.07v0.783h-3.31v-0.59c0.276,0,0.494-0.049,0.653-0.146c0.158-0.098,0.278-0.217,0.357-0.357
				c0.079-0.142,0.129-0.295,0.15-0.46c0.021-0.165,0.031-0.318,0.031-0.46l0.018-9.919l-1.21,0.078v-0.794h2.153l7.694,10.294
				h0.018l0.018-8.272c0-0.506,0.018-0.941,0.053-1.306l-1.297,0.078v-0.794h3.326v0.592c-0.341,0.012-0.597,0.075-0.764,0.189
				c-0.168,0.114-0.286,0.27-0.353,0.464c-0.068,0.193-0.1,0.423-0.098,0.688c0.004,0.266,0.005,0.56,0.005,0.883L145.493,66.522z"
				/>
			<path fill="#888888" d="M168.813,66.372h-0.935l-0.106-3.846h0.697c0.035,0.535,0.149,1.005,0.344,1.407
				c0.194,0.403,0.447,0.739,0.765,1.01c0.313,0.271,0.68,0.476,1.098,0.613c0.417,0.139,0.864,0.208,1.34,0.208
				c0.354,0,0.688-0.049,1.003-0.146c0.313-0.097,0.59-0.241,0.829-0.432c0.237-0.191,0.425-0.428,0.564-0.71
				c0.137-0.282,0.207-0.605,0.207-0.97c0-0.441-0.098-0.821-0.291-1.139c-0.194-0.318-0.452-0.599-0.772-0.842
				c-0.32-0.244-0.686-0.465-1.095-0.662c-0.409-0.196-0.824-0.394-1.248-0.591c-0.423-0.197-0.84-0.405-1.247-0.626
				c-0.409-0.221-0.775-0.477-1.095-0.768c-0.321-0.291-0.578-0.63-0.772-1.018c-0.193-0.389-0.291-0.851-0.291-1.386
				c0-0.206,0.023-0.426,0.071-0.661c0.047-0.235,0.124-0.47,0.233-0.705c0.108-0.235,0.252-0.464,0.432-0.685
				s0.404-0.414,0.675-0.582c0.271-0.167,0.592-0.302,0.963-0.401c0.37-0.101,0.8-0.149,1.287-0.149c0.235,0,0.485,0.014,0.75,0.043
				s0.535,0.081,0.808,0.151c0.274,0.07,0.546,0.166,0.816,0.286s0.529,0.272,0.776,0.455l-0.071-0.776h0.918v3.959h-0.653
				c-0.029-0.436-0.113-0.858-0.252-1.269c-0.138-0.409-0.339-0.771-0.604-1.087c-0.265-0.316-0.591-0.569-0.979-0.761
				c-0.389-0.192-0.848-0.288-1.377-0.288c-0.377,0-0.709,0.058-0.997,0.172c-0.288,0.116-0.529,0.271-0.723,0.465
				c-0.194,0.194-0.342,0.42-0.441,0.676s-0.149,0.525-0.149,0.808c0,0.413,0.098,0.771,0.295,1.074
				c0.196,0.304,0.457,0.572,0.78,0.809c0.324,0.236,0.691,0.45,1.103,0.645c0.412,0.195,0.832,0.391,1.263,0.587
				c0.429,0.197,0.85,0.409,1.261,0.636c0.412,0.227,0.779,0.487,1.103,0.785c0.323,0.297,0.583,0.642,0.782,1.035
				c0.196,0.395,0.295,0.858,0.295,1.394c0,0.5-0.094,0.961-0.283,1.381c-0.188,0.421-0.462,0.782-0.82,1.085
				s-0.802,0.539-1.327,0.71c-0.526,0.17-1.126,0.256-1.796,0.256c-0.271,0-0.549-0.02-0.833-0.058
				c-0.286-0.038-0.568-0.095-0.847-0.171c-0.28-0.077-0.551-0.175-0.812-0.292c-0.264-0.118-0.506-0.253-0.729-0.406
				L168.813,66.372z"/>
			<path fill="#888888" d="M194.479,60.12l-6.467,0.078v3.888c0,0.33-0.005,0.612-0.013,0.848c-0.01,0.236-0.025,0.431-0.049,0.584
				l1.307-0.07v0.783h-4.068v-0.59c0.342-0.012,0.598-0.074,0.769-0.186c0.171-0.112,0.291-0.265,0.361-0.459
				c0.071-0.195,0.107-0.426,0.111-0.693c0.002-0.269,0.004-0.561,0.004-0.88v-7.817c0-0.246,0.004-0.481,0.014-0.702
				c0.008-0.221,0.024-0.423,0.048-0.604l-1.307,0.078v-0.794h4.068v0.592c-0.342,0.012-0.598,0.075-0.769,0.19
				c-0.171,0.113-0.291,0.269-0.361,0.463s-0.108,0.425-0.11,0.689c-0.004,0.265-0.005,0.56-0.005,0.884v3.003h6.467v-3.799
				c0-0.506,0.019-0.942,0.054-1.307l-1.306,0.078v-0.794h4.067v0.592c-0.336,0.012-0.591,0.075-0.764,0.19
				c-0.174,0.113-0.295,0.269-0.366,0.463c-0.07,0.194-0.107,0.425-0.11,0.689s-0.004,0.559-0.004,0.883v7.687
				c0,0.646-0.018,1.124-0.053,1.431l1.297-0.07v0.783h-4.067v-0.59c0.341-0.012,0.598-0.074,0.772-0.186
				c0.172-0.112,0.295-0.265,0.365-0.459c0.07-0.195,0.106-0.426,0.11-0.693c0.002-0.269,0.004-0.561,0.004-0.88V60.12z"/>
			<path fill="#888888" d="M206.34,59.908c0-0.506,0.056-1.021,0.167-1.545c0.112-0.523,0.282-1.029,0.512-1.521
				s0.518-0.95,0.864-1.38c0.348-0.43,0.753-0.806,1.219-1.129c0.464-0.323,0.99-0.578,1.578-0.764
				c0.588-0.185,1.238-0.277,1.95-0.277c0.735,0,1.403,0.095,2.006,0.282c0.604,0.188,1.144,0.442,1.62,0.763
				s0.889,0.696,1.239,1.129c0.35,0.433,0.641,0.894,0.874,1.385c0.232,0.491,0.406,0.998,0.521,1.521
				c0.115,0.523,0.172,1.035,0.172,1.535s-0.057,1.009-0.172,1.529c-0.114,0.521-0.286,1.026-0.513,1.518
				c-0.227,0.49-0.513,0.952-0.859,1.385c-0.348,0.432-0.754,0.81-1.223,1.133c-0.466,0.323-0.994,0.58-1.578,0.768
				c-0.586,0.188-1.234,0.282-1.945,0.282c-0.766,0-1.455-0.092-2.07-0.274c-0.614-0.182-1.159-0.43-1.635-0.744
				c-0.478-0.314-0.889-0.686-1.231-1.111c-0.345-0.427-0.627-0.884-0.847-1.372c-0.222-0.488-0.384-0.998-0.49-1.53
				C206.393,60.959,206.34,60.432,206.34,59.908z M208.112,59.577c0,0.446,0.041,0.91,0.124,1.39
				c0.082,0.479,0.206,0.948,0.375,1.408c0.167,0.459,0.379,0.896,0.636,1.31c0.255,0.416,0.558,0.777,0.907,1.086
				c0.351,0.31,0.744,0.555,1.183,0.737c0.438,0.182,0.929,0.274,1.47,0.274c0.494,0,0.946-0.075,1.358-0.226
				c0.411-0.15,0.781-0.356,1.111-0.617c0.33-0.263,0.618-0.571,0.865-0.928s0.452-0.738,0.617-1.148
				c0.165-0.407,0.289-0.845,0.375-1.309c0.085-0.466,0.128-0.901,0.128-1.308c0-0.435-0.047-0.917-0.142-1.447
				c-0.094-0.529-0.232-1.025-0.414-1.486c-0.183-0.463-0.406-0.896-0.671-1.298c-0.265-0.403-0.57-0.754-0.918-1.051
				c-0.347-0.298-0.733-0.531-1.159-0.701c-0.428-0.171-0.89-0.257-1.39-0.257c-0.742,0-1.392,0.164-1.95,0.495
				c-0.559,0.329-1.023,0.759-1.394,1.288s-0.648,1.125-0.835,1.788C208.205,58.24,208.112,58.906,208.112,59.577z"/>
			<path fill="#888888" d="M231.388,61.478c-0.059,0-0.151,0-0.278,0c-0.126,0-0.248-0.004-0.365-0.01v2.617
				c0,0.33-0.005,0.613-0.013,0.849c-0.01,0.235-0.025,0.43-0.049,0.584l1.668-0.088v0.801h-4.43v-0.59
				c0.341-0.012,0.598-0.074,0.769-0.186c0.17-0.112,0.291-0.265,0.361-0.459s0.106-0.426,0.11-0.692
				c0.002-0.268,0.004-0.561,0.004-0.88v-7.81c0-0.247,0.004-0.482,0.014-0.702c0.008-0.222,0.024-0.424,0.048-0.605l-1.306,0.08
				v-0.804c0.636-0.012,1.288-0.019,1.959-0.021c0.67-0.003,1.361-0.004,2.073-0.004c1.752,0,3.084,0.294,3.996,0.882
				c0.977,0.642,1.465,1.578,1.465,2.813c0,0.253-0.028,0.533-0.084,0.839c-0.057,0.306-0.169,0.622-0.34,0.948
				c-0.17,0.326-0.404,0.638-0.7,0.935c-0.298,0.297-0.671,0.556-1.121,0.776s-0.987,0.396-1.61,0.529
				C232.936,61.411,232.212,61.478,231.388,61.478z M230.744,60.72c0.224,0.029,0.418,0.047,0.587,0.053
				c0.167,0.006,0.362,0.008,0.587,0.008c0.512,0,0.995-0.076,1.45-0.229c0.456-0.152,0.853-0.374,1.191-0.665
				c0.338-0.29,0.606-0.646,0.803-1.062c0.197-0.417,0.296-0.889,0.296-1.418c0-0.569-0.091-1.054-0.273-1.452
				c-0.182-0.4-0.438-0.726-0.768-0.975s-0.724-0.429-1.183-0.541c-0.458-0.111-0.964-0.168-1.517-0.168
				c-0.324,0-0.567,0.052-0.729,0.154c-0.162,0.104-0.277,0.248-0.345,0.436s-0.101,0.413-0.101,0.674c0,0.262,0,0.554,0,0.876
				V60.72z"/>
		</g>
		<g>
			<rect x="0.006" y="59.128" fill="#888888" width="13.467" height="1.505"/>
			<rect x="249.534" y="59.128" fill="#888888" width="13.467" height="1.505"/>
		</g>
	</g>
</g>
</svg>
