<?xml version="1.0" encoding="utf-8"?>
<!-- Generator: Adobe Illustrator 16.0.0, SVG Export Plug-In . SVG Version: 6.00 Build 0)  -->
<!DOCTYPE svg PUBLIC "-//W3C//DTD SVG 1.1//EN" "http://www.w3.org/Graphics/SVG/1.1/DTD/svg11.dtd">
<svg version="1.1" id="Layer_1" xmlns="http://www.w3.org/2000/svg" xmlns:xlink="http://www.w3.org/1999/xlink" x="0px" y="0px"
	 width="19px" height="25px" viewBox="0 0 19 25" enable-background="new 0 0 19 25" xml:space="preserve">
<g>
	<path fill="#FFFFFF" d="M17.647,5.7h-2.692V5.548C14.955,2.483,12.503,0,9.501,0C6.489,0,4.047,2.483,4.047,5.548V5.7H1.335
		c-1.571,0-1.321,1.293-1.321,2.901v13.497C0.015,23.707,1.285,25,2.856,25h13.279c1.571,0,2.853-1.293,2.853-2.901V8.602
		C18.988,6.993,19.218,5.7,17.647,5.7z M5.468,5.548c0-2.26,1.812-4.103,4.033-4.103c2.222,0,4.033,1.842,4.033,4.103V5.7H5.468
		V5.548z M17.567,8.011c0,0.193-0.011,0.387-0.011,0.591v13.497c0,0.804-0.631,1.456-1.421,1.456H2.856
		c-0.781,0-1.421-0.652-1.421-1.456V8.602c0-0.214,0-0.428-0.01-0.621c0-0.265-0.01-0.601,0.01-0.835h2.612v2.342h1.421V7.146h8.066
		v2.342h1.421V7.146h2.612C17.577,7.39,17.577,7.736,17.567,8.011z"/>
</g>
</svg>
