<?xml version="1.0" encoding="utf-8"?>
<!-- Generator: Adobe Illustrator 16.0.0, SVG Export Plug-In . SVG Version: 6.00 Build 0)  -->
<!DOCTYPE svg PUBLIC "-//W3C//DTD SVG 1.1//EN" "http://www.w3.org/Graphics/SVG/1.1/DTD/svg11.dtd">
<svg version="1.1" id="Layer_1" xmlns="http://www.w3.org/2000/svg" xmlns:xlink="http://www.w3.org/1999/xlink" x="0px" y="0px"
	 width="20px" height="26px" viewBox="0 0 20 26" enable-background="new 0 0 20 26" xml:space="preserve">
<path fill="#FFFFFF" d="M18.217,7.8c0.002,0.191-0.002,0.406-0.006,0.587C18.208,8.586,18.204,8.791,18.204,9v14
	c0,0.662-0.538,1.201-1.2,1.201h-14c-0.662,0-1.2-0.539-1.2-1.201V9c0-0.221-0.004-0.437-0.008-0.646
	C1.792,8.184,1.788,7.982,1.789,7.8H18.217 M18.598,6H1.395c-1.657,0-1.391,1.343-1.391,3v14c0,1.656,1.343,3,3,3h14
	c1.656,0,3-1.344,3-3V9C20.004,7.344,20.254,6,18.598,6L18.598,6z"/>
<g>
	<path fill="#FFFFFF" d="M6.153,10.058h-1.8l0-4.082c0-3.253,2.534-5.9,5.649-5.9s5.65,2.646,5.65,5.9v4.082h-1.801V5.976
		c0-2.261-1.727-4.1-3.849-4.1s-3.849,1.839-3.849,4.1L6.153,10.058z"/>
</g>
</svg>
