<?xml version="1.0" encoding="utf-8"?>
<!-- Generator: Adobe Illustrator 16.0.0, SVG Export Plug-In . SVG Version: 6.00 Build 0)  -->
<!DOCTYPE svg PUBLIC "-//W3C//DTD SVG 1.1//EN" "http://www.w3.org/Graphics/SVG/1.1/DTD/svg11.dtd">
<svg version="1.1" id="Layer_1" xmlns="http://www.w3.org/2000/svg" xmlns:xlink="http://www.w3.org/1999/xlink" x="0px" y="0px"
	 width="28px" height="36px" viewBox="0 0 28 36" enable-background="new 0 0 28 36" xml:space="preserve">
<path fill="#212121" d="M25.798,10.241c0.025,0.347,0.017,0.846,0.007,1.244c-0.004,0.274-0.009,0.556-0.009,0.846v19.506
	c0,1.149-0.938,2.09-2.09,2.09H4.201c-1.151,0-2.09-0.938-2.09-2.09V12.331c0-0.305-0.005-0.603-0.011-0.891
	c-0.008-0.381-0.019-0.86,0.002-1.199H25.798 M25.926,8.151H1.959c-2.308,0-1.938,1.872-1.938,4.18v19.506
	c0,2.308,1.872,4.179,4.18,4.179h19.505c2.308,0,4.18-1.871,4.18-4.179V12.331C27.886,10.022,28.232,8.151,25.926,8.151
	L25.926,8.151z"/>
<g>
	<path fill="#212121" d="M8.03,13.698H5.94l0.001-5.688C5.941,3.594,9.535,0,13.952,0c4.418,0,8.012,3.594,8.012,8.011v5.688h-2.089
		V8.011c0-3.265-2.657-5.921-5.923-5.921c-3.264,0-5.921,2.656-5.921,5.921L8.03,13.698z"/>
</g>
</svg>
