<?xml version="1.0" encoding="utf-8"?>
<!-- Generator: Adobe Illustrator 16.0.0, SVG Export Plug-In . SVG Version: 6.00 Build 0)  -->
<!DOCTYPE svg PUBLIC "-//W3C//DTD SVG 1.1//EN" "http://www.w3.org/Graphics/SVG/1.1/DTD/svg11.dtd">
<svg version="1.1" id="Layer_1" xmlns="http://www.w3.org/2000/svg" xmlns:xlink="http://www.w3.org/1999/xlink" x="0px" y="0px"
	 width="29px" height="18px" viewBox="0 0 29 18" enable-background="new 0 0 29 18" xml:space="preserve">
<g>
	<rect y="0.053" fill="none" width="29" height="18"/>
	<g>
		<path fill="#FFFFFF" d="M28.182,7.646c-0.309-0.386-0.637-0.745-0.949-1.074c-1.82-1.902-3.772-3.489-5.934-4.674
			c-1.546-0.848-3.063-1.404-4.53-1.684C15.883,0.046,15.07,0,14.354,0c-0.747,0-1.576,0.042-2.46,0.215
			C10.41,0.503,8.892,1.063,7.362,1.898C5.263,3.044,3.296,4.62,1.431,6.572C1.069,6.95,0.757,7.296,0.479,7.646
			c-0.641,0.807-0.641,1.868,0,2.676c0.761,0.961,1.779,1.961,3.054,3.039c2.711,2.291,5.369,3.745,7.972,4.344
			C12.421,17.913,13.374,18,14.354,18c0.949,0,1.887-0.087,2.804-0.296c2.632-0.603,5.296-2.047,8.002-4.344
			c1.357-1.154,2.348-2.181,3.021-3.039C28.831,9.493,28.838,8.466,28.182,7.646L28.182,7.646z M26.874,9.132
			c-0.685,0.891-1.632,1.816-2.803,2.808c-2.458,2.08-4.872,3.433-7.272,3.964c-0.885,0.193-1.696,0.264-2.444,0.264h-0.046
			c-0.765,0-1.559-0.073-2.414-0.264c-2.369-0.535-4.806-1.854-7.304-3.964C3.415,10.946,2.49,10.008,1.82,9.132
			c-0.109-0.083-0.109-0.182,0-0.297c0.078-0.116,0.214-0.286,0.404-0.495c0.2-0.219,0.344-0.381,0.422-0.48
			c1.805-1.882,3.651-3.302,5.512-4.292c1.487-0.794,2.835-1.318,4.049-1.537c0.7-0.127,1.417-0.197,2.148-0.197
			c0.7,0,1.401,0.061,2.134,0.197c1.23,0.227,2.58,0.75,4.048,1.537c1.896,1.013,3.721,2.427,5.481,4.292
			c0.405,0.43,0.69,0.755,0.856,0.975C26.957,8.944,26.951,9.049,26.874,9.132L26.874,9.132z M26.874,9.132"/>
		<path fill="#FFFFFF" d="M14.354,3.535c-1.509,0-2.819,0.528-3.893,1.604C9.387,6.212,8.857,7.505,8.857,9.015
			s0.526,2.792,1.604,3.862c1.071,1.063,2.384,1.588,3.893,1.588c1.51,0,2.787-0.528,3.847-1.588
			c1.073-1.075,1.604-2.352,1.604-3.862s-0.534-2.799-1.604-3.876C17.138,4.068,15.864,3.535,14.354,3.535L14.354,3.535z
			 M16.986,11.662c-0.732,0.731-1.604,1.09-2.632,1.09c-1.044,0-1.931-0.375-2.664-1.105c-0.731-0.732-1.104-1.619-1.104-2.631
			c0-1.043,0.373-1.916,1.104-2.647c0.732-0.732,1.619-1.106,2.664-1.106c1.044,0,1.911,0.378,2.632,1.106
			c0.728,0.736,1.09,1.604,1.09,2.647C18.076,10.042,17.717,10.931,16.986,11.662L16.986,11.662z M16.986,11.662"/>
	</g>
</g>
</svg>
