<?xml version="1.0" encoding="utf-8"?>
<!-- Generator: Adobe Illustrator 16.0.0, SVG Export Plug-In . SVG Version: 6.00 Build 0)  -->
<!DOCTYPE svg PUBLIC "-//W3C//DTD SVG 1.1//EN" "http://www.w3.org/Graphics/SVG/1.1/DTD/svg11.dtd">
<svg version="1.1" id="Layer_1" xmlns="http://www.w3.org/2000/svg" xmlns:xlink="http://www.w3.org/1999/xlink" x="0px" y="0px"
	 width="23px" height="23px" viewBox="0 0 23 23" enable-background="new 0 0 23 23" xml:space="preserve">
<g>
	<g>
		<path fill="#212121" stroke="#212121" stroke-miterlimit="10" d="M12.702,22.5h-2.312c-0.349,0-0.469,0.002-1.655-2.998
			l-0.917-0.378c-2.494,1.154-2.79,1.154-2.889,1.154H4.74l-0.163-0.142l-1.639-1.636c-0.249-0.255-0.335-0.344,0.947-3.303
			l-0.374-0.9C0.5,13.195,0.5,13.068,0.5,12.704v-2.313c0-0.361,0-0.475,3.002-1.661l0.373-0.904
			C2.518,4.914,2.611,4.822,2.88,4.565L4.643,2.8l0.219-0.006c0.265,0,1.252,0.368,2.937,1.093l0.913-0.379
			C9.811,0.5,9.946,0.5,10.292,0.5h2.313c0.344,0,0.467,0,1.653,2.999l0.918,0.377c2.49-1.153,2.789-1.153,2.89-1.153h0.188
			l0.163,0.141l1.64,1.632c0.249,0.256,0.334,0.345-0.949,3.305l0.375,0.908C22.5,9.805,22.5,9.932,22.5,10.295v2.312
			c0,0.355,0,0.48-3.007,1.664l-0.371,0.904c1.351,2.899,1.26,2.991,1.009,3.251l-1.775,1.775l-0.222,0.007
			c-0.265,0-1.249-0.368-2.931-1.096l-0.92,0.379C13.182,22.5,13.057,22.5,12.702,22.5L12.702,22.5z M10.63,21.544h1.825
			c0.209-0.435,0.662-1.588,1.024-2.582l0.071-0.199l1.661-0.685l0.18,0.077c0.989,0.432,2.159,0.91,2.614,1.056l1.283-1.279
			c-0.163-0.461-0.656-1.588-1.104-2.538L18.097,15.2l0.688-1.675l0.186-0.072c1.001-0.395,2.159-0.878,2.592-1.099v-1.797
			c-0.437-0.211-1.592-0.659-2.586-1.018L18.78,9.468l-0.691-1.676l0.081-0.189c0.427-0.98,0.901-2.137,1.053-2.602l-1.286-1.283
			c-0.414,0.149-1.574,0.657-2.556,1.112l-0.182,0.086l-1.661-0.683l-0.073-0.189c-0.393-0.999-0.881-2.159-1.102-2.587h-1.823
			c-0.21,0.435-0.66,1.588-1.022,2.584L9.447,4.236L7.791,4.923l-0.18-0.078c-0.992-0.429-2.164-0.906-2.62-1.052L3.71,5.073
			C3.871,5.531,4.367,6.66,4.81,7.608l0.092,0.193l-0.69,1.675L4.025,9.549c-0.999,0.391-2.155,0.876-2.588,1.097v1.799
			c0.437,0.213,1.591,0.659,2.584,1.021l0.193,0.071l0.692,1.67l-0.083,0.189c-0.426,0.978-0.898,2.135-1.05,2.597l1.286,1.286
			c0.414-0.146,1.573-0.656,2.554-1.112l0.184-0.086l1.658,0.688l0.073,0.188C9.925,19.96,10.411,21.115,10.63,21.544L10.63,21.544z
			 M11.499,15.35c-2.119,0-3.847-1.726-3.847-3.848c0-2.123,1.726-3.85,3.847-3.85c2.119,0,3.842,1.727,3.842,3.85
			C15.341,13.624,13.617,15.35,11.499,15.35L11.499,15.35z M11.499,8.607c-1.605,0-2.908,1.298-2.908,2.895
			c0,1.594,1.303,2.893,2.908,2.893c1.604,0,2.908-1.299,2.908-2.893C14.406,9.905,13.103,8.607,11.499,8.607L11.499,8.607z
			 M11.499,8.607"/>
	</g>
</g>
</svg>
