<?xml version="1.0" encoding="utf-8"?>
<!-- Generator: Adobe Illustrator 16.0.0, SVG Export Plug-In . SVG Version: 6.00 Build 0)  -->
<!DOCTYPE svg PUBLIC "-//W3C//DTD SVG 1.1//EN" "http://www.w3.org/Graphics/SVG/1.1/DTD/svg11.dtd">
<svg version="1.1" id="Layer_1" xmlns="http://www.w3.org/2000/svg" xmlns:xlink="http://www.w3.org/1999/xlink" x="0px" y="0px"
	 width="22px" height="19px" viewBox="0 0 22 19" enable-background="new 0 0 22 19" xml:space="preserve">
<g>
	<path fill="#FFFFFF" d="M11,19c-0.208,0-0.405-0.08-0.545-0.221l-8.793-8.76c-0.002-0.002-0.005-0.004-0.007-0.006
		C0.588,8.921,0,7.474,0,5.937C0,4.401,0.588,2.953,1.655,1.86l0.134-0.136C2.875,0.613,4.326,0,5.874,0s2.999,0.613,4.085,1.725
		L11,2.792l1.042-1.067C13.13,0.613,14.579,0,16.127,0s2.999,0.613,4.085,1.725l0.134,0.136C21.413,2.953,22,4.401,22,5.937
		c0,1.537-0.587,2.984-1.654,4.077c-0.002,0.002-0.005,0.004-0.007,0.006l-8.793,8.76C11.406,18.92,11.208,19,11,19L11,19z
		 M2.757,9.088L11,17.301l8.245-8.213c1.695-1.739,1.694-4.567-0.004-6.305l-0.134-0.136c-0.802-0.82-1.858-1.271-2.98-1.271
		c-1.121,0-2.179,0.451-2.979,1.27l-1.595,1.632C11.412,4.423,11.211,4.505,11,4.505s-0.411-0.083-0.552-0.227L8.854,2.646
		c-0.8-0.819-1.858-1.27-2.979-1.27s-2.18,0.451-2.98,1.27L2.76,2.783C1.062,4.521,1.061,7.349,2.757,9.088L2.757,9.088z
		 M2.757,9.088"/>
</g>
</svg>
